<svg width="66" height="80" viewBox="0 0 66 80" fill="none" xmlns="http://www.w3.org/2000/svg">
<g clip-path="url(#clip0_312_1186)">
<path d="M50.2915 0C50.3765 0.0534744 50.4664 0.0989094 50.5598 0.135721C53.2493 0.86026 54.801 2.86266 54.8031 5.65851C54.8031 14.5145 54.7989 23.369 54.7906 32.2222C54.7906 32.9906 54.9487 33.358 55.7474 33.665C66.3287 37.7241 69.4446 51.5613 61.6548 59.811C61.4446 60.013 61.2795 60.2573 61.1701 60.528C61.0608 60.7986 61.0097 61.0894 61.0204 61.3812C61.0453 66.6952 61.037 72.0071 61.0308 77.319C61.0308 78.6658 60.336 79.7119 59.1317 79.9039C58.4765 79.9958 57.809 79.8851 57.218 79.5866C54.9549 78.3776 52.7334 77.081 50.5223 75.7801C49.9982 75.469 49.6279 75.4878 49.1162 75.7906C46.9738 77.058 44.8084 78.2962 42.6431 79.5156C40.5319 80.7141 38.6182 79.5887 38.6141 77.154C38.6141 74.3958 38.6141 71.6375 38.6141 68.7707H5.99887C2.21109 68.7686 0 66.5574 0 62.7677V6.68163C0 2.7332 0.908982 1.39061 4.51579 0H50.2915ZM49.8234 32.385V6.05523C49.8234 5.01122 49.8234 5.01122 48.7834 5.01122H6.04879C4.99212 5.01122 4.99212 5.01122 4.99212 6.10325V62.6695C4.99212 63.7657 4.99212 63.7678 6.06335 63.7678H37.807C38.0587 63.7678 38.3083 63.7448 38.6141 63.7302C38.6141 62.9243 38.5808 62.1726 38.6141 61.423C38.6372 61.131 38.5951 60.8376 38.4907 60.5641C38.3863 60.2906 38.2224 60.044 38.0108 59.8424C29.4951 50.7178 34.0151 35.7906 46.1501 32.953C47.3336 32.6794 48.5484 32.573 49.8234 32.385ZM49.8442 37.5111C47.6288 37.507 45.4619 38.162 43.6171 39.3933C41.7723 40.6246 40.3323 42.3771 39.479 44.4294C38.6257 46.4818 38.3974 48.7419 38.8229 50.9243C39.2483 53.1068 40.3085 55.1138 41.8695 56.6919C43.4305 58.2699 45.4223 59.3483 47.5935 59.7907C49.7646 60.2331 52.0176 60.0199 54.0681 59.1778C56.1185 58.3357 57.8744 56.9026 59.114 55.0594C60.3536 53.2163 61.0213 51.0457 61.0328 48.8218C61.0422 45.8329 59.869 42.9625 57.7709 40.8416C55.6729 38.7206 52.8218 37.5227 49.8442 37.5111ZM43.6041 73.2014C45.2307 72.2681 46.7658 71.4141 48.2717 70.5121C49.3118 69.8857 50.306 69.8732 51.344 70.5121C52.2966 71.0926 53.2743 71.6292 54.2415 72.1825C54.8135 72.5082 55.3897 72.8277 56.0033 73.1722V63.7929C51.8557 65.432 47.7413 65.4069 43.6041 63.7929V73.2014Z" fill="white"/>
<path d="M25.6137 12.5029C29.0125 12.5029 32.41 12.5029 35.806 12.5029C37.47 12.5029 38.5974 13.5135 38.6057 14.9835C38.6141 16.4535 37.4846 17.4891 35.8414 17.5016C28.9647 17.5016 22.0894 17.5016 15.2156 17.5016C13.5765 17.5016 12.4408 16.4576 12.4553 14.9772C12.4699 13.4968 13.591 12.5029 15.2572 12.5029C18.7114 12.5002 22.1636 12.5002 25.6137 12.5029Z" fill="white"/>
<path d="M25.5846 22.5067C29.0084 22.5067 32.4328 22.5067 35.858 22.5067C37.4992 22.5067 38.6328 23.5507 38.6203 25.0248C38.6078 26.4989 37.4888 27.5033 35.8954 27.5033C28.9938 27.5033 22.0929 27.5033 15.1927 27.5033C13.6014 27.5033 12.4886 26.4593 12.4699 25.0206C12.4699 23.5381 13.5848 22.515 15.2322 22.515C18.6768 22.5067 22.1276 22.5039 25.5846 22.5067Z" fill="white"/>
<path d="M21.1458 37.5111C19.1489 37.5111 17.1521 37.5111 15.1552 37.5111C13.5765 37.5111 12.4512 36.4462 12.4512 35.0055C12.4512 33.5648 13.5723 32.5208 15.1552 32.5187C19.1489 32.5187 23.1433 32.5187 27.1384 32.5187C28.7338 32.5187 29.857 33.5418 29.8737 34.9867C29.8903 36.4316 28.7588 37.5111 27.1218 37.5174C25.1416 37.5153 23.1447 37.5111 21.1458 37.5111Z" fill="white"/>
<path d="M47.8911 49.1914C49.033 47.473 50.1417 45.7859 51.2753 44.1155C51.5088 43.7433 51.8018 43.4124 52.1427 43.1362C52.606 42.8078 53.1676 42.6492 53.7335 42.687C54.2994 42.7248 54.8351 42.9567 55.251 43.3438C55.6668 43.7309 55.9375 44.2497 56.0177 44.8132C56.0978 45.3768 55.9826 45.951 55.6913 46.4394C55.2441 47.1974 54.7282 47.9156 54.2352 48.6506C53.0725 50.4024 51.9181 52.1606 50.7428 53.904C49.8255 55.2633 48.4943 55.5536 47.1111 54.6766C45.8859 53.8999 44.6795 53.0897 43.4876 52.2608C42.2957 51.4318 41.9962 49.9264 42.7804 48.7696C43.5646 47.6129 45.0248 47.3414 46.277 48.1307C46.8011 48.4606 47.317 48.8135 47.8911 49.1914Z" fill="white"/>
</g>
<defs>
<clipPath id="clip0_312_1186">
<rect width="66" height="80" fill="white"/>
</clipPath>
</defs>
</svg>
