<svg width="36" height="34" viewBox="0 0 36 34" fill="none" xmlns="http://www.w3.org/2000/svg">
<g clip-path="url(#clip0_315_1239)">
<path d="M2.7353 28.7618V28.23C2.7353 22.6145 2.7353 16.999 2.7353 11.3835C2.7353 10.014 3.56484 8.95045 4.86142 8.66684C5.13477 8.61841 5.41248 8.5984 5.69002 8.60713C8.77657 8.6034 11.8625 8.6034 14.9478 8.60713H15.4506V7.39435C15.4506 6.20022 15.4506 5.00609 15.4506 3.81196C15.4506 1.70451 16.9506 0.209987 19.0682 0.208121C23.4391 0.204389 27.8097 0.204389 32.1799 0.208121C34.2816 0.208121 35.79 1.70078 35.7947 3.77558C35.8013 6.48103 35.7947 9.18087 35.7947 11.8835C35.7947 13.8202 35.081 14.8782 33.2693 15.6105V28.7646C33.727 28.7646 34.1855 28.7898 34.6403 28.7599C35.5555 28.6993 35.8964 29.2012 35.7702 30.066C35.4444 32.3124 33.7194 33.7976 31.3824 33.7976C27.1446 33.8051 22.9074 33.8051 18.6709 33.7976C13.9955 33.7976 9.31893 33.7976 4.64109 33.7976C2.60442 33.7976 1.0037 32.708 0.411441 30.9056C0.293915 30.5311 0.222464 30.144 0.19864 29.7525C0.153443 29.1051 0.486768 28.7702 1.14024 28.7608C1.65623 28.7552 2.16563 28.7618 2.7353 28.7618ZM16.8056 28.7282H31.5368V15.7663C31.4786 15.7524 31.4194 15.7427 31.3598 15.7374C29.4126 15.7374 27.4663 15.7309 25.5219 15.7374C25.3679 15.7526 25.2224 15.8149 25.1057 15.9156C24.5483 16.3587 24.0031 16.8177 23.4542 17.2711C22.3148 18.2115 21.1783 19.1556 20.0352 20.0904C19.5183 20.512 18.8742 20.4019 18.6454 19.8525C18.5841 19.6801 18.556 19.4978 18.5626 19.3151C18.556 18.1238 18.5626 16.9315 18.5626 15.7448C18.4957 15.7234 18.4599 15.7085 18.4232 15.7001C16.4572 15.2401 15.4591 13.9928 15.4581 11.9927V10.278H5.72674C4.78515 10.278 4.42452 10.626 4.42452 11.5514C4.42452 17.1408 4.42452 22.7296 4.42452 28.3177C4.42452 28.4558 4.4377 28.5976 4.44523 28.7329H6.96777C6.96777 27.8671 6.96212 27.0294 6.96777 26.1907C6.98095 24.5264 8.10615 23.3919 9.78125 23.377C11.1849 23.3633 12.5888 23.3633 13.993 23.377C15.6756 23.3919 16.7971 24.5208 16.8037 26.1851C16.8084 27.0238 16.8056 27.8624 16.8056 28.7282ZM20.2518 17.7254C21.6538 16.5677 22.9683 15.4864 24.2715 14.3987C24.5398 14.1639 24.8881 14.0388 25.246 14.0488C27.5501 14.06 29.8542 14.0563 32.1573 14.0488C33.3465 14.0488 34.1036 13.3174 34.1064 12.1429C34.1139 9.34973 34.1139 6.55628 34.1064 3.76252C34.1064 2.61224 33.3447 1.86964 32.1799 1.86777C27.8109 1.8628 23.4419 1.8628 19.0729 1.86777C17.9053 1.86777 17.1474 2.6141 17.1436 3.75879C17.1354 6.56499 17.1354 9.3715 17.1436 12.1783C17.1436 13.3081 17.91 14.0441 19.0475 14.0497C20.0249 14.0572 20.2499 14.2858 20.2508 15.2681L20.2518 17.7254ZM33.9049 30.4597H2.05829C2.09972 30.5651 2.11949 30.6407 2.15245 30.7078C2.68916 31.7023 3.53942 32.1072 4.66274 32.1072C13.5495 32.0979 22.4363 32.096 31.3231 32.1016C31.5114 32.1016 31.695 32.1016 31.8786 32.0829C32.7929 31.999 33.6497 31.318 33.9077 30.4625L33.9049 30.4597ZM15.1192 28.7338C15.1192 27.9147 15.1192 27.118 15.1192 26.3222C15.1236 26.178 15.1148 26.0338 15.0928 25.8912C14.9986 25.3949 14.6436 25.074 14.1286 25.0702C12.6327 25.059 11.1362 25.059 9.63907 25.0702C9.08353 25.0749 8.70689 25.4677 8.68429 26.0237C8.66735 26.4295 8.6777 26.8372 8.67676 27.243V28.7357L15.1192 28.7338Z" fill="white"/>
<path d="M26.1295 34H14.6006C11.2824 34 7.96452 34 4.64697 34C2.53403 33.9953 0.841039 32.8385 0.227119 30.9727C0.103715 30.5814 0.029089 30.1766 0.00490288 29.7674C-0.0214618 29.3942 0.0642234 29.1022 0.258192 28.8932C0.45216 28.6843 0.751588 28.5704 1.13952 28.5649C1.49451 28.5593 1.84666 28.5602 2.21953 28.5649H2.53497V23.6204C2.53497 19.5405 2.53497 15.4608 2.53497 11.3815C2.53497 9.91686 3.43231 8.77404 4.81834 8.47178C5.10582 8.41955 5.39813 8.39797 5.69025 8.40741C8.13401 8.40368 10.5771 8.40368 13.0196 8.40741H15.254V6.2841C15.254 5.45754 15.254 4.63129 15.254 3.80535C15.254 1.56823 16.8274 0.00466456 19.0703 0C23.4704 0 27.8827 0 32.183 0C34.3882 0 35.9927 1.58595 35.9974 3.76524C35.9974 5.66558 35.9974 7.59764 35.9974 9.46626C35.9974 10.2686 35.9974 11.0712 35.9974 11.8741C35.9974 13.8463 35.2639 14.9732 33.472 15.7336V28.5611H33.7036C34.0097 28.5611 34.3251 28.5714 34.6302 28.5509C35.1132 28.5191 35.4776 28.6311 35.713 28.883C35.9616 29.1498 36.0492 29.5547 35.9719 30.0864C35.6283 32.4532 33.8279 33.9851 31.3864 33.9897C29.6416 33.9991 27.8789 34 26.1295 34ZM18.672 33.6016H22.4102C25.3526 33.6016 28.3959 33.6016 31.3883 33.6016C33.6198 33.6016 35.2648 32.2023 35.5784 30.0389C35.6377 29.6312 35.5849 29.3364 35.4221 29.1619C35.2723 29.0024 35.0162 28.9334 34.6594 28.9567C34.3383 28.9772 34.0134 28.9716 33.6999 28.9669C33.5577 28.9669 33.4174 28.9623 33.2752 28.9623H33.0747V15.4714L33.1989 15.421C34.9268 14.7223 35.6 13.7287 35.6 11.876C35.6 11.0737 35.6 10.2711 35.6 9.46813C35.6 7.6023 35.6 5.66838 35.6 3.76803C35.5953 1.78653 34.1876 0.40022 32.1849 0.398354C27.8846 0.398354 23.4732 0.398354 19.0741 0.398354C17.0657 0.398354 15.6599 1.79772 15.6552 3.80535C15.6552 4.63129 15.6552 5.45723 15.6552 6.28317V8.80203H13.0206C10.5768 8.80203 8.13401 8.80203 5.69214 8.80203C5.42863 8.79473 5.16509 8.81505 4.9059 8.86267C3.71008 9.12202 2.93703 10.1118 2.93609 11.3815C2.93609 15.4602 2.93609 19.5395 2.93609 23.6195V28.9567H2.21765C1.84666 28.9567 1.49639 28.9567 1.14517 28.9567C0.872112 28.9567 0.674377 29.0276 0.552911 29.1563C0.431445 29.2851 0.386249 29.48 0.404139 29.7403C0.42595 30.1158 0.49458 30.4871 0.608465 30.8458C1.17342 32.5689 2.68468 33.5989 4.64697 33.6007C7.96389 33.6007 11.2818 33.6007 14.6006 33.6007L18.672 33.6016ZM4.66109 32.3105C3.40312 32.3105 2.52555 31.8179 1.97943 30.8038C1.95046 30.747 1.92591 30.6881 1.90598 30.6275C1.89563 30.5986 1.88527 30.5678 1.87209 30.5342L1.76757 30.2646H34.1801L34.1038 30.5202C33.8213 31.4475 32.8986 32.1902 31.9052 32.2853C31.7169 32.304 31.5239 32.3058 31.3299 32.3058H23.9666C17.6419 32.3058 11.1016 32.3058 4.66956 32.3114L4.66109 32.3105ZM2.35418 30.6602C2.83251 31.5147 3.56601 31.914 4.65921 31.914C11.0922 31.9065 17.6325 31.9075 23.9619 31.9075H31.3252C31.5088 31.9075 31.6877 31.9075 31.8619 31.8897C32.2348 31.847 32.5908 31.7119 32.8972 31.4971C33.2036 31.2822 33.4505 30.9944 33.6151 30.6602H2.35418ZM15.3199 28.9352H8.47455V28.2822C8.47455 27.9342 8.47455 27.59 8.47455 27.2457C8.47455 27.13 8.47455 27.0134 8.47455 26.8968C8.47455 26.6095 8.47455 26.3128 8.48302 26.018C8.51127 25.351 8.98489 24.8808 9.63648 24.8742C11.0008 24.8612 12.4707 24.8603 14.1288 24.8742C14.7333 24.8789 15.1778 25.2558 15.2889 25.8585C15.3127 26.01 15.3228 26.1633 15.319 26.3165C15.319 26.9164 15.319 27.5088 15.319 28.1105L15.3199 28.9352ZM8.87661 28.5387H14.9198V28.1105C14.9198 27.5088 14.9198 26.9173 14.9198 26.3259C14.9242 26.1933 14.9167 26.0606 14.8972 25.9294C14.8209 25.5142 14.5403 25.2763 14.1279 25.2707C12.4716 25.2595 11.0046 25.2595 9.64213 25.2707C9.20146 25.2754 8.90392 25.5749 8.88885 26.0348C8.87755 26.3193 8.87943 26.6123 8.88132 26.8949C8.88132 27.0116 8.88132 27.1291 8.88132 27.2466V28.5369L8.87661 28.5387ZM7.16762 28.9315H4.25526L4.24585 28.7449L4.23737 28.6134C4.23172 28.5201 4.22513 28.4184 4.22513 28.3176C4.22513 22.7282 4.22513 17.1395 4.22513 11.5513C4.22513 10.5251 4.67521 10.0801 5.73168 10.0801H15.6523V11.9935C15.6523 13.8901 16.5986 15.0721 18.463 15.5078C18.4922 15.5153 18.5214 15.5246 18.5571 15.5377L18.6146 15.5573L18.753 15.602V16.6208C18.753 17.5033 18.753 18.4166 18.7577 19.315C18.7505 19.4733 18.7735 19.6316 18.8255 19.7815C18.8576 19.8675 18.9101 19.9446 18.9786 20.0063C19.0471 20.068 19.1296 20.1125 19.2191 20.136C19.3403 20.1587 19.4651 20.1529 19.5837 20.1193C19.7022 20.0856 19.8111 20.0248 19.9017 19.9419C20.7125 19.2796 21.5335 18.6013 22.3264 17.9446L23.3207 17.1236L23.7472 16.77C24.1474 16.4379 24.5608 16.0955 24.9713 15.7653C25.1237 15.6375 25.3127 15.5601 25.5118 15.5442C27.2066 15.5339 28.9222 15.5358 30.5851 15.5377H31.3534C31.4033 15.5391 31.4528 15.5457 31.5013 15.5573C31.521 15.5619 31.5417 15.5666 31.5653 15.5703L31.731 15.5992V28.9268H16.6052V27.9183C16.6052 27.3343 16.6052 26.7606 16.6052 26.1859C16.5986 24.614 15.5695 23.5896 13.9923 23.5738C12.5055 23.5598 11.1298 23.5598 9.78525 23.5738C8.23256 23.5896 7.1808 24.641 7.16856 26.1859C7.16856 26.7606 7.16856 27.3241 7.16856 27.9202C7.16856 28.187 7.16856 28.4548 7.16856 28.7262L7.16762 28.9315ZM4.63378 28.5341H6.76744C6.76744 28.3307 6.76744 28.1292 6.76744 27.9277C6.76744 27.3306 6.76744 26.7662 6.76744 26.1897C6.78156 24.4069 7.99151 23.1969 9.78054 23.1791C11.128 23.1652 12.5065 23.1652 13.9961 23.1791C15.7851 23.195 16.9979 24.4031 17.0092 26.1841C17.0092 26.7597 17.0092 27.3343 17.0092 27.9183V28.5303H31.3402V15.936H30.5936C28.9316 15.936 27.2132 15.936 25.524 15.9425C25.4152 15.9578 25.3133 16.0045 25.2312 16.0769C24.8206 16.4034 24.4082 16.7458 24.0071 17.076L23.5796 17.4296L22.5862 18.2515C21.7925 18.9045 20.9714 19.5865 20.1597 20.2498C20.0209 20.3727 19.8547 20.4614 19.6747 20.5087C19.4948 20.556 19.3061 20.5607 19.124 20.5222C18.9734 20.4845 18.8342 20.4114 18.7181 20.3091C18.6021 20.2068 18.5126 20.0783 18.4573 19.9345C18.3854 19.7389 18.3519 19.5315 18.3585 19.3234C18.3585 18.4232 18.3585 17.5098 18.3585 16.6264V15.8959C16.3001 15.4099 15.2512 14.0991 15.2512 11.9991V10.4766H5.72697C4.89272 10.4766 4.62531 10.7378 4.62437 11.5513C4.62437 17.1407 4.62437 22.7295 4.62437 28.3176C4.62531 28.3885 4.62908 28.4604 4.63378 28.5341ZM20.0562 18.1517V15.2755C20.0562 14.4051 19.9149 14.2624 19.0515 14.2558C17.7982 14.2465 16.9527 13.4162 16.9489 12.1866C16.9395 9.51104 16.9395 6.75615 16.9489 3.76524C16.9489 2.51886 17.8029 1.67924 19.0731 1.67924C23.4214 1.67365 27.83 1.67365 32.1801 1.67924C33.4485 1.67924 34.3025 2.51886 34.3063 3.77083C34.3147 6.40818 34.3147 9.15001 34.3063 12.1531C34.3063 13.4293 33.4588 14.2558 32.1566 14.2568H31.4353C29.4062 14.2568 27.3083 14.2568 25.2444 14.2512H25.2349C24.9272 14.2435 24.628 14.3519 24.3979 14.5544C23.4431 15.3529 22.493 16.1403 21.4865 16.9669L20.3773 17.8811L20.0562 18.1517ZM25.6266 2.07013C23.4374 2.07013 21.2473 2.07013 19.0731 2.07013C18.0101 2.07013 17.3472 2.72317 17.3444 3.76244C17.335 6.75335 17.335 9.50638 17.3444 12.182C17.3444 13.1905 18.0176 13.8472 19.0505 13.8547C20.1371 13.8631 20.4516 14.1812 20.4516 15.2718V17.3009L21.2332 16.6572C22.2388 15.8278 23.1889 15.0441 24.1427 14.2465C24.4471 13.9809 24.8417 13.8393 25.2472 13.85C27.3102 13.8594 29.4071 13.8575 31.4363 13.8556H32.1575C33.2338 13.8556 33.9042 13.2026 33.907 12.1475C33.9146 9.14534 33.9146 6.40445 33.907 3.7671C33.907 2.72224 33.2423 2.072 32.1811 2.07107C30.006 2.07107 27.8159 2.07013 25.6266 2.07013Z" fill="white"/>
<path d="M15.4506 18.8755C15.4448 19.572 15.2312 20.2513 14.8365 20.8277C14.4419 21.4041 13.8839 21.852 13.2329 22.1149C12.5818 22.3777 11.8669 22.4438 11.178 22.3048C10.4891 22.1659 9.85711 21.828 9.36163 21.3339C8.86616 20.8398 8.52935 20.2114 8.39362 19.528C8.25789 18.8445 8.32931 18.1366 8.59888 17.4933C8.86846 16.85 9.32414 16.3001 9.90852 15.9129C10.4929 15.5257 11.1799 15.3185 11.8829 15.3174C12.3532 15.3181 12.8187 15.4108 13.2528 15.5902C13.6868 15.7695 14.0809 16.032 14.4123 16.3626C14.7438 16.6931 15.0061 17.0853 15.1843 17.5165C15.3624 17.9477 15.4529 18.4096 15.4506 18.8755ZM11.9045 20.6826C12.3929 20.6814 12.8611 20.4897 13.2079 20.1491C13.5547 19.8085 13.7522 19.3462 13.7576 18.8625C13.7576 18.3719 13.5627 17.9011 13.215 17.5519C12.8674 17.2027 12.3949 17.0032 11.8998 16.9966C11.652 16.9914 11.4057 17.0353 11.1753 17.1258C10.9448 17.2162 10.7349 17.3513 10.5579 17.5232C10.3809 17.6951 10.2404 17.9003 10.1446 18.1268C10.0487 18.3533 9.9995 18.5964 9.99981 18.842C10.0001 19.0875 10.05 19.3306 10.1464 19.5568C10.2428 19.783 10.3839 19.9879 10.5613 20.1593C10.7387 20.3308 10.949 20.4654 11.1796 20.5553C11.4103 20.6451 11.6568 20.6884 11.9045 20.6826Z" fill="white"/>
<path d="M11.9046 22.5708H11.898C11.1531 22.5735 10.4242 22.3568 9.80396 21.948C9.18373 21.5393 8.70017 20.9571 8.41474 20.2754C8.12931 19.5937 8.05491 18.8433 8.20099 18.1196C8.34707 17.3959 8.70704 16.7316 9.23513 16.2111C9.58008 15.8657 9.99065 15.5914 10.4432 15.4041C10.8957 15.2168 11.3812 15.1201 11.8716 15.1196H11.8791C12.3759 15.1196 12.8677 15.217 13.3264 15.4061C13.785 15.5952 14.2013 15.8723 14.5514 16.2215C14.9015 16.5707 15.1784 16.985 15.3661 17.4407C15.5539 17.8963 15.6489 18.3843 15.6455 18.8765C15.6436 20.8804 13.929 22.5708 11.9046 22.5708ZM11.8754 15.5161C10.9862 15.5223 10.1356 15.8762 9.50863 16.5009C8.88168 17.1255 8.52921 17.9703 8.52799 18.8513C8.53346 19.7338 8.8909 20.5785 9.52237 21.201C10.1538 21.8235 11.0081 22.1733 11.8989 22.1743H11.9046C13.7124 22.1743 15.2444 20.6649 15.251 18.8746C15.2541 18.4344 15.1692 17.998 15.0013 17.5905C14.8333 17.183 14.5856 16.8124 14.2724 16.5002C13.9592 16.188 13.5868 15.9403 13.1765 15.7714C12.7662 15.6025 12.3262 15.5157 11.882 15.5161H11.8754ZM11.9017 20.8813C11.6312 20.882 11.3631 20.8298 11.1129 20.7279C10.8627 20.6259 10.6352 20.4761 10.4434 20.2871C10.2516 20.098 10.0993 19.8734 9.99515 19.626C9.89098 19.3786 9.83702 19.1133 9.83634 18.8452C9.83566 18.5772 9.88828 18.3116 9.99118 18.0637C10.0941 17.8158 10.2453 17.5904 10.4361 17.4004C10.6269 17.2103 10.8537 17.0594 11.1034 16.9562C11.3531 16.853 11.6208 16.7995 11.8914 16.7989H11.9008C12.4472 16.7989 12.9712 17.0139 13.3576 17.3967C13.7439 17.7795 13.961 18.2987 13.961 18.8401C13.961 19.3814 13.7439 19.9006 13.3576 20.2834C12.9712 20.6662 12.4472 20.8813 11.9008 20.8813H11.9017ZM11.8914 17.1954C11.6734 17.196 11.4576 17.2392 11.2565 17.3225C11.0554 17.4058 10.8727 17.5275 10.7191 17.6807C10.4087 17.9901 10.2351 18.409 10.2365 18.8452C10.2379 19.2814 10.4141 19.6992 10.7264 20.0067C11.0387 20.3142 11.4615 20.4862 11.9017 20.4848C12.342 20.4848 12.7642 20.3115 13.0755 20.0031C13.3869 19.6946 13.5618 19.2763 13.5618 18.8401C13.5618 18.4039 13.3869 17.9855 13.0755 17.6771C12.7642 17.3686 12.342 17.1954 11.9017 17.1954H11.8914Z" fill="white"/>
<path d="M25.6264 6.49868C24.1039 6.49868 22.5822 6.49868 21.0597 6.49868C20.3836 6.49868 19.9646 5.96133 20.1661 5.37919C20.2932 5.01162 20.6002 4.82784 21.1162 4.8269C23.1155 4.8269 25.1142 4.8269 27.1123 4.8269C28.1188 4.8269 29.1244 4.8269 30.131 4.8269C30.7628 4.8269 31.1178 5.12917 31.1235 5.64787C31.1291 6.16657 30.7543 6.49682 30.1141 6.49775C28.6188 6.50086 27.1229 6.50117 25.6264 6.49868Z" fill="white"/>
<path d="M23.0079 6.69824C22.3591 6.69824 21.7056 6.69824 21.0587 6.69824C20.8733 6.70419 20.6892 6.66585 20.5218 6.58645C20.3545 6.50705 20.2089 6.38892 20.0974 6.24204C20.0038 6.10903 19.9441 5.95564 19.9231 5.79486C19.9021 5.63409 19.9205 5.47067 19.9769 5.31846C20.1341 4.86413 20.5173 4.63277 21.1162 4.63184C22.5888 4.63184 24.0618 4.63184 25.5351 4.63184H27.9908C28.7045 4.63184 29.4182 4.63184 30.132 4.63184C30.8711 4.63184 31.3165 5.01433 31.3231 5.64871C31.3289 5.78129 31.3076 5.91366 31.2605 6.0379C31.2134 6.16213 31.1415 6.27567 31.0491 6.37172C30.8353 6.58536 30.5124 6.69824 30.1141 6.69917C29.0331 6.69917 27.9528 6.69917 26.8731 6.69917H23.0126L23.0079 6.69824ZM23.957 5.02366C23.0097 5.02366 22.0628 5.02366 21.1162 5.02366C20.5701 5.02366 20.4222 5.24756 20.3554 5.4416C20.3194 5.53404 20.3068 5.63377 20.3186 5.73214C20.3305 5.8305 20.3663 5.92452 20.4232 6.00602C20.4982 6.10139 20.5953 6.17752 20.7062 6.22801C20.8172 6.27849 20.9387 6.30186 21.0606 6.29615C22.1444 6.29615 23.247 6.29615 24.3138 6.29615H30.1131C30.4022 6.29615 30.6272 6.22338 30.7638 6.08625C30.8191 6.02739 30.8617 5.958 30.8891 5.8823C30.9164 5.80659 30.9279 5.72617 30.9229 5.64591C30.9229 5.23356 30.6517 5.02366 30.1301 5.02179C29.417 5.02179 28.7039 5.02179 27.9908 5.02179H23.957V5.02366Z" fill="white"/>
<path d="M23.3026 11.1241C22.5747 11.1241 21.8459 11.1297 21.1171 11.1241C20.5004 11.1176 20.1313 10.8004 20.1266 10.2845C20.1219 9.76863 20.4872 9.43371 21.0992 9.43091C22.5562 9.42407 24.0132 9.42407 25.4701 9.43091C26.0784 9.43091 26.4654 9.76583 26.471 10.2659C26.4767 10.7659 26.0803 11.1158 25.4485 11.1204C24.7338 11.1288 24.0182 11.1241 23.3026 11.1241Z" fill="white"/>
<path d="M21.9853 11.3246C21.6962 11.3246 21.4043 11.3246 21.1152 11.3246C20.3883 11.318 19.9326 10.9225 19.9269 10.2928C19.922 10.1587 19.9445 10.0251 19.993 9.89987C20.0416 9.77465 20.1152 9.66047 20.2094 9.56417C20.4185 9.35333 20.7273 9.24138 21.102 9.23952C22.4561 9.23299 23.8863 9.23299 25.4748 9.23952C26.1848 9.23952 26.6678 9.65653 26.6753 10.2704C26.6797 10.401 26.6576 10.5312 26.6102 10.6531C26.5628 10.7751 26.4911 10.8864 26.3995 10.9803C26.1791 11.2033 25.8515 11.3227 25.4579 11.3264C24.9579 11.3264 24.4504 11.3264 23.9598 11.3264H21.9853V11.3246ZM23.2508 9.62761C22.506 9.62761 21.7932 9.62761 21.1002 9.62761C20.8346 9.62761 20.6237 9.70038 20.49 9.83378C20.4337 9.89344 20.3902 9.96382 20.3622 10.0406C20.3342 10.1175 20.3223 10.1991 20.3271 10.2806C20.3318 10.8301 20.8252 10.9169 21.119 10.9197C21.6237 10.9244 22.1369 10.9197 22.6331 10.9197H23.9513C24.4419 10.9197 24.9485 10.9197 25.4466 10.9197C25.729 10.9197 25.9663 10.8376 26.1057 10.693C26.1604 10.6373 26.2032 10.5713 26.2315 10.4988C26.2599 10.4264 26.2731 10.349 26.2705 10.2713C26.2648 9.87856 25.9579 9.63321 25.4682 9.63227C24.6952 9.62854 23.9588 9.62761 23.2508 9.62761Z" fill="white"/>
</g>
<defs>
<clipPath id="clip0_315_1239">
<rect width="36" height="34" fill="white"/>
</clipPath>
</defs>
</svg>
