<svg width="35" height="35" viewBox="0 0 35 35" fill="none" xmlns="http://www.w3.org/2000/svg">
<g clip-path="url(#clip0_312_1222)">
<path d="M19.5594 0H32.0763C32.6866 0.226466 32.8904 0.679399 32.8867 1.30949C32.8712 3.89467 32.8813 6.48077 32.8803 9.07143C32.8803 9.97547 32.5149 10.3499 31.6259 10.3499C30.1641 10.3499 28.705 10.3499 27.2486 10.3499H26.8832V12.3689H27.2733C29.4727 12.3689 31.6725 12.3689 33.8726 12.3689C34.5669 12.3689 34.9881 12.7762 34.9927 13.4647C35.0018 14.9002 35.0018 16.3357 34.9927 17.7712C34.9872 18.4378 34.556 18.8469 33.8899 18.8606C33.6889 18.8606 33.487 18.8606 33.2504 18.8606V19.3053C33.2504 24.0904 33.2504 28.8751 33.2504 33.6595C33.2504 33.7964 33.2549 33.9334 33.2431 34.0695C33.2307 34.2294 33.1803 34.384 33.0959 34.5204C33.0115 34.6568 32.8957 34.771 32.7582 34.8535C32.6206 34.936 32.4653 34.9844 32.3052 34.9946C32.1451 35.0049 31.9848 34.9767 31.8379 34.9123C31.3463 34.6959 31.1983 34.2804 31.1983 33.77C31.2032 28.9515 31.2032 24.1327 31.1983 19.3136V18.8908H3.83732V33.6841C3.84159 33.8209 3.83854 33.9577 3.82818 34.0941C3.81135 34.2437 3.76124 34.3877 3.68152 34.5154C3.60181 34.6432 3.4945 34.7514 3.36747 34.8324C3.24045 34.9133 3.09692 34.9647 2.9474 34.983C2.79789 35.0013 2.64618 34.9859 2.50339 34.9379C2.02282 34.7754 1.79166 34.4028 1.79166 33.7818V18.8524C0.995876 18.9163 0.272267 18.8789 0 17.9776V13.2611C0.314295 12.5022 0.524434 12.3634 1.37047 12.3634H8.25937V10.3444H7.87473C6.40558 10.3444 4.93644 10.3444 3.46729 10.3444C2.64501 10.3444 2.25854 9.95538 2.25854 9.13079C2.25854 6.54652 2.27224 3.96225 2.24849 1.37889C2.243 0.742408 2.42025 0.273951 3.00955 0H15.5932C16.1716 0.264819 16.3598 0.715926 16.3543 1.34236C16.3324 3.9385 16.3461 6.53556 16.3451 9.13262C16.3451 9.95447 15.9642 10.3426 15.1346 10.3435C13.6642 10.3435 12.1945 10.3435 10.7253 10.3435H10.3525V12.3369H24.7882V10.3444H24.3944C22.9325 10.3444 21.4738 10.3444 20.018 10.3444C19.1601 10.3444 18.791 9.97913 18.7901 9.11983C18.7901 6.52278 18.8038 3.92663 18.78 1.32958C18.7773 0.696749 18.9691 0.250209 19.5594 0ZM32.9297 14.4372H2.10139V16.7868H32.9297V14.4372ZM14.284 2.07472H4.32977V8.26602H14.2885L14.284 2.07472ZM20.8577 8.26876H30.8073V2.07655H20.8577V8.26876Z" fill="white"/>
<path d="M22.8119 32.9088V27.3567C22.695 27.3494 22.5863 27.3375 22.4776 27.3375C21.838 27.3375 21.1984 27.3458 20.5644 27.3375C19.4296 27.3147 18.6073 26.4874 18.6064 25.3569C18.6064 24.7551 18.5854 24.1442 18.6731 23.5525C18.8961 22.0512 20.2391 20.886 21.7576 20.8586C23.1476 20.8342 24.5375 20.8342 25.9275 20.8586C27.6223 20.8915 29.012 22.2904 29.0723 23.988C29.0887 24.4656 29.0887 24.9441 29.0768 25.4217C29.0512 26.5047 28.2545 27.3056 27.1582 27.3348C26.5186 27.3522 25.8791 27.3394 25.245 27.3403H24.8914V32.9198C25.2788 32.9198 25.6625 32.8987 26.0417 32.9252C26.2545 32.9395 26.4573 33.0211 26.6206 33.1583C26.7839 33.2954 26.8994 33.4809 26.9503 33.6879C27.0011 33.8949 26.9848 34.1128 26.9036 34.3099C26.8224 34.507 26.6805 34.6732 26.4985 34.7844C26.3217 34.8855 26.1228 34.9419 25.9193 34.9488C24.5403 34.9622 23.1616 34.9622 21.7832 34.9488C21.1363 34.9424 20.7042 34.5014 20.7133 33.9096C20.7224 33.3371 21.1592 32.9252 21.7887 32.9051C22.1212 32.9006 22.4501 32.9088 22.8119 32.9088ZM20.6567 25.2637H27.0266C27.0266 24.8455 27.0421 24.4483 27.0266 24.0529C27.0172 23.7468 26.8898 23.4561 26.671 23.2417C26.4522 23.0273 26.159 22.9057 25.8526 22.9023C24.5192 22.8883 23.1859 22.8883 21.8526 22.9023C21.5469 22.9062 21.2542 23.0262 21.0337 23.2378C20.8131 23.4494 20.6813 23.7368 20.6649 24.0419C20.6393 24.4373 20.6567 24.8382 20.6567 25.2637Z" fill="white"/>
<path d="M12.2529 27.3642V32.9491C12.5928 32.9491 12.9199 32.9491 13.247 32.9491C13.8774 32.9555 14.3434 33.3902 14.3434 33.9682C14.3434 34.5462 13.8783 34.9928 13.247 34.9946C11.8795 35.0001 10.5118 35.0001 9.14378 34.9946C8.53438 34.9946 8.07847 34.5545 8.06842 33.9901C8.05837 33.4258 8.52525 32.961 9.15018 32.9528C9.47909 32.9482 9.80801 32.9528 10.1552 32.9528V27.3642H9.78425C9.1447 27.3642 8.50514 27.376 7.86559 27.3587C6.86058 27.3322 6.06845 26.672 5.99079 25.6784C5.9314 24.9141 5.93323 24.1187 6.08215 23.3718C6.22573 22.6877 6.59666 22.0722 7.13462 21.6256C7.67258 21.1789 8.34592 20.9273 9.04511 20.9117C10.446 20.866 11.847 20.863 13.2479 20.9026C15.0121 20.9519 16.3059 22.2194 16.4329 23.9836C16.4757 24.5513 16.4714 25.1215 16.4201 25.6885C16.3768 26.1359 16.1715 26.5521 15.8427 26.8589C15.5139 27.1656 15.0844 27.3417 14.6348 27.3541C13.9752 27.3815 13.3137 27.3642 12.6522 27.366L12.2529 27.3642ZM14.4091 25.2949C14.4091 24.9552 14.4091 24.6393 14.4091 24.3224C14.4018 23.422 13.9167 22.9353 13.0085 22.928C12.1003 22.9207 11.2095 22.928 10.3096 22.928C9.91125 22.928 9.51107 22.917 9.11546 22.9508C8.60016 22.9955 8.20912 23.2905 8.1004 23.7809C7.99168 24.2712 8.02091 24.7854 7.98893 25.2949H14.4091Z" fill="white"/>
</g>
<defs>
<clipPath id="clip0_312_1222">
<rect width="35" height="35" fill="white"/>
</clipPath>
</defs>
</svg>
