<svg width="87" height="76" viewBox="0 0 87 76" fill="none" xmlns="http://www.w3.org/2000/svg">
<g clip-path="url(#clip0_309_1158)">
<path d="M0 26.1185V24.4197C0.242774 23.9745 0.481094 23.5292 0.732777 23.0839C4.7263 16.0527 8.75546 9.03718 12.6955 1.97264C13.4862 0.549934 14.4618 0 16.0765 0C34.3744 0.0400762 52.6716 0.0482398 70.968 0.024491H71.732C72.7298 0.024491 73.4425 0.469782 73.9348 1.347C78.1532 8.76852 82.371 16.1967 86.588 23.6316C86.8594 24.0946 87.001 24.6222 86.9978 25.1589C86.775 29.977 84.5656 33.6194 80.3159 35.9327C79.7435 36.2467 79.5319 36.5561 79.5319 37.2196C79.5572 49.2247 79.5631 61.2297 79.5497 73.2347C79.5497 75.2207 78.7702 76.0044 76.7768 76.0044H10.2455C8.24096 76.0044 7.47477 75.2341 7.47477 73.2414C7.47477 61.2943 7.47997 49.3456 7.49036 37.3955C7.49036 36.6252 7.29436 36.1977 6.57717 35.837C4.47907 34.7772 2.89547 33.1497 1.69274 31.1347C0.757277 29.5784 0.365275 27.8574 0 26.1185ZM11.7846 71.6584H19.2927V70.4762C19.2927 63.3983 19.2772 56.3204 19.2927 49.2402C19.3106 44.4489 22.3887 41.412 27.184 41.412C28.9659 41.412 30.7477 41.323 32.5295 41.4454C33.6922 41.5256 34.9283 41.7104 35.9662 42.2024C38.7971 43.5383 40.1023 45.9518 40.109 49.0465C40.1268 56.2669 40.109 63.4873 40.109 70.7077V71.6517H75.2399V37.3777C73.1022 37.4767 70.9737 37.0397 69.0481 36.1064C67.1104 35.1305 65.4445 33.6902 64.1993 31.914C61.6045 35.4273 58.2235 37.3532 53.8959 37.3666C49.5682 37.3799 46.1471 35.4296 43.5635 31.9741C38.2692 39.4305 27.6005 38.8939 22.8141 31.9474C20.0857 35.6589 16.4129 37.4868 11.7846 37.4044V71.6584ZM6.28317 22.0419H80.7458C80.6589 21.8593 80.6188 21.7591 80.5654 21.6656C77.3804 16.0594 74.1842 10.4577 71.0215 4.84031C70.7297 4.31932 70.3421 4.34158 69.89 4.34158C52.3034 4.34158 34.716 4.33713 17.1278 4.32823C16.8683 4.30312 16.6075 4.36038 16.3824 4.49188C16.1573 4.62337 15.9794 4.82241 15.8739 5.06073C12.8225 10.4755 9.75848 15.8843 6.68186 21.2871C6.54822 21.5031 6.44131 21.728 6.28317 22.0419ZM35.8281 71.6918C35.8459 71.4803 35.8638 71.369 35.8638 71.2599C35.8638 63.7894 35.8638 56.3211 35.8638 48.8551C35.8638 46.9759 34.5987 45.7135 32.7233 45.6846C30.8835 45.6579 29.0438 45.6846 27.2041 45.6846C24.7429 45.6846 23.6025 46.7978 23.6003 49.2469C23.6003 56.4339 23.6003 63.6194 23.6003 70.8035V71.7052L35.8281 71.6918ZM20.5066 26.4302H4.47016C5.25862 30.3911 8.54832 33.1096 12.4884 33.1096C14.3963 33.1131 16.2448 32.446 17.7105 31.225C19.1763 30.004 20.166 28.3068 20.5066 26.4302ZM25.1683 26.3946C25.5428 28.4633 26.7013 30.3077 28.4024 31.5437C30.1036 32.7797 32.2162 33.3119 34.3002 33.0294C38.4897 32.4795 41.1736 28.6678 41.0711 26.3946H25.1683ZM45.9422 26.3946C46.0736 29.2467 49.2208 33.074 53.8379 33.094C58.4551 33.114 61.6602 29.2667 61.7983 26.3946H45.9422ZM66.5713 26.4102C67.0948 30.3622 70.8767 33.2966 75.0595 33.0762C78.7702 32.8803 82.4096 29.6341 82.4831 26.4102H66.5713Z" fill="white"/>
<path d="M55.8692 62.1848C54.0295 62.1848 52.1875 62.2004 50.3478 62.1848C46.606 62.147 44.1916 59.7513 44.1559 56.022C44.1314 53.19 44.127 50.3601 44.1559 47.5281C44.196 43.8544 46.6505 41.4254 50.3166 41.412C54.054 41.3957 57.7921 41.3957 61.531 41.412C65.1904 41.4276 67.6471 43.8611 67.6783 47.5415C67.7035 50.3735 67.7035 53.2048 67.6783 56.0354C67.6494 59.7224 65.2483 62.1336 61.56 62.1826C59.6645 62.2071 57.7669 62.1848 55.8692 62.1848ZM55.9227 57.9167C57.7892 57.9167 59.6556 57.9167 61.5243 57.9167C62.8161 57.9167 63.4108 57.3334 63.4175 56.0621C63.4309 53.2419 63.4309 50.4143 63.4175 47.5793C63.4175 46.2657 62.8117 45.6735 61.4798 45.6712C57.7676 45.6594 54.0607 45.6594 50.3589 45.6712C49.0226 45.6712 48.4323 46.2679 48.4257 47.5838C48.4153 50.3832 48.4153 53.1825 48.4257 55.9819C48.4257 57.3623 48.9981 57.9123 50.4057 57.919C52.2432 57.9234 54.083 57.9167 55.9227 57.9167Z" fill="white"/>
</g>
<defs>
<clipPath id="clip0_309_1158">
<rect width="87" height="76" fill="white"/>
</clipPath>
</defs>
</svg>
