<svg width="106" height="66" viewBox="0 0 106 66" fill="none" xmlns="http://www.w3.org/2000/svg">
<g clip-path="url(#clip0_312_1181)">
<path d="M0 1.64435C0.478846 0.646396 1.17286 -0.0799662 2.37946 3.88906e-05C8.84493 0.463226 15.3062 0.970627 21.5481 2.88443C22.7224 3.27411 23.8597 3.76732 24.9464 4.35821C26.2289 5.01931 26.7289 6.11201 26.4103 7.54999C26.3302 7.91212 26.3239 8.28899 26.2669 8.81323H27.3469C32.5531 8.81323 37.7613 8.83008 42.9696 8.78797C43.5758 8.76788 44.1627 8.57019 44.6571 8.21951C47.9605 5.81515 51.5255 4.30347 55.7233 4.7435C58.3264 5.0172 60.729 5.93305 63.1169 6.93732C66.7937 8.489 70.5 9.98173 74.1895 11.4934C74.5038 11.6218 74.8328 11.7039 75.1703 11.8303C75.1703 9.80277 75.5058 9.34169 77.4 8.61322C83.3065 6.34571 89.464 5.26985 95.7333 4.75192C98.1718 4.54138 100.623 4.54138 103.066 4.38348C104.416 4.29715 105.405 4.75613 106.019 5.97726V46.822C105.414 48.0431 104.409 48.4515 103.066 48.4368C99.2033 48.3926 95.3409 48.4221 91.4806 48.4221C89.272 48.4242 88.808 48.0747 88.1751 45.9609C88.076 45.6366 87.9642 45.3292 87.7849 44.8218C86.6753 45.5672 85.6269 46.2472 84.6207 46.982C84.4646 47.0957 84.4308 47.462 84.4414 47.7062C84.6186 51.9381 81.9269 55.0751 77.6911 55.631C77.2552 55.6974 76.8621 55.9298 76.5942 56.2794C74.6704 59.3175 71.8712 60.566 68.3674 60.347C67.8379 60.3134 67.5742 60.3913 67.3126 60.8523C65.5154 63.9473 61.5918 65.7958 58.415 64.6673C58.1919 64.6113 57.9557 64.6446 57.7568 64.76C55.2128 66.3453 52.5359 66.2106 49.7831 65.4632C46.9627 64.6947 44.5812 63.1472 42.3177 61.3787C36.8648 57.1216 31.3486 52.9571 26.0053 48.5505C23.3348 46.3504 21.0059 43.7334 18.521 41.3058C18.4261 41.2132 18.3248 41.1227 18.0991 40.9248C17.9177 41.4658 17.77 41.9311 17.6055 42.3985C17.2427 43.4133 16.536 43.9797 15.4349 43.9818C11.0578 43.9818 6.67853 43.9713 2.2993 43.9818C1.17707 43.9818 0.569552 43.3039 0.023204 42.4849L0 1.64435ZM25.8092 13.243C23.7862 20.675 21.8012 27.9555 19.8373 35.2423C19.736 35.617 19.7107 36.2129 19.928 36.4382C22.5353 39.1352 24.9907 42.0217 27.887 44.3881C34.1942 49.5569 40.6871 54.5067 47.2032 59.4165C48.5048 60.3955 50.2303 60.8397 51.7997 61.4208C52.3988 61.6313 53.1139 61.5513 53.7763 61.6019L53.9872 61.2124C51.7385 59.0438 49.4772 56.8858 47.237 54.7004C46.3763 53.8582 45.5494 52.9845 44.7541 52.077C43.9104 51.1107 43.9842 49.8453 44.8533 49.0158C45.7224 48.1863 46.9986 48.2136 47.9289 49.0663C48.2326 49.3463 48.5005 49.6622 48.7937 49.9527C52.145 53.2694 55.4983 56.5833 58.8537 59.8944C59.6722 60.7029 60.6172 60.7365 61.6171 60.2712C62.617 59.806 63.3363 59.0628 63.8405 57.8395C60.9737 55.0435 58.0859 52.2371 55.2128 49.4179C54.5898 48.8244 54.0057 48.1914 53.4641 47.5231C53.1216 47.1044 52.9526 46.5707 52.9918 46.0316C53.0311 45.4925 53.2755 44.9888 53.675 44.6239C54.0755 44.2361 54.6097 44.0163 55.1677 44.0096C55.7257 44.003 56.265 44.21 56.6747 44.5881C57.0122 44.8829 57.3075 45.2303 57.6155 45.5461C60.7797 48.7042 63.908 51.9086 67.1291 55.0204C68.5699 56.41 70.6751 56.2563 72.1243 54.873C72.7276 54.2961 72.9048 53.8435 72.1623 53.1129C68.2155 49.2221 64.3278 45.2724 60.4379 41.3227C59.3832 40.2468 59.3558 38.9499 60.2966 38.034C61.2374 37.1182 62.5136 37.1919 63.5916 38.2677C64.6695 39.3436 65.701 40.4489 66.7684 41.5185C69.7617 44.5124 72.7719 47.4894 75.7673 50.4833C76.3791 51.0959 77.0583 51.3633 77.9147 51.098C79.6867 50.5527 80.5115 48.8179 79.6782 47.1757C79.2696 46.3416 78.7385 45.5731 78.1025 44.8955C76.3559 43.0954 74.6177 41.2658 72.7065 39.632C66.8823 34.6844 60.9843 29.823 55.0884 24.9553C54.8542 24.7637 54.3395 24.7448 54.0189 24.8479C52.9409 25.1953 51.9094 25.7196 50.8252 26.008C50.1348 26.1838 49.519 26.5756 49.068 27.126C45.9713 30.6799 42.1511 32.1179 37.4892 30.8757C33.9706 29.9367 32.3337 27.2481 33.0193 23.6647C33.5255 21.0077 34.768 18.6875 36.3142 16.5169C37.0989 15.4115 37.9828 14.3778 38.8814 13.2388L25.8092 13.243ZM82.4226 43.1017C83.5976 42.3164 84.6987 41.5501 85.8336 40.8363C86.3125 40.5374 86.3568 40.2405 86.1711 39.7352C83.5343 32.5895 80.9291 25.4332 78.286 18.2896C78.1388 17.9204 77.8579 17.6198 77.4992 17.4475C71.4746 15.001 65.4416 12.577 59.4001 10.1754C56.025 8.83639 52.6076 8.44479 49.357 10.4428C45.1128 13.0535 41.4655 16.3379 38.9321 20.6771C38.217 21.9025 37.7824 23.3068 37.3457 24.6774C37.1221 25.3764 37.2171 26.2186 38.1305 26.4375C39.1535 26.6817 40.2399 26.9386 41.2609 26.8733C43.5454 26.7281 45.0242 25.2206 46.3679 23.5384C46.8024 22.9931 47.3319 22.3846 47.95 22.1467C49.9603 21.3719 52.0465 20.795 54.0674 20.0603C55.2107 19.6392 56.0946 19.8497 56.9953 20.654C59.5266 22.8878 62.0706 25.0985 64.661 27.2565C70.7468 32.3137 77.1912 36.9603 82.4226 43.1017ZM80.4798 12.1524C80.811 12.904 81.0979 13.5272 81.3616 14.1588C85.3358 23.6331 88.7257 33.318 91.892 43.0807C92.1029 43.7334 92.3561 44.0092 93.0923 43.9944C95.6109 43.9418 98.1296 43.9755 100.648 43.9692C100.942 43.9692 101.237 43.9186 101.522 43.8913V8.83008C94.3453 9.01535 87.3799 9.94594 80.4798 12.1608V12.1524ZM13.8697 39.5562C17.0697 29.0545 20.3161 18.5696 21.9932 7.61105C16.2533 5.65303 10.3912 5.133 4.46571 4.54559V39.5562H13.8697Z" fill="white"/>
</g>
<defs>
<clipPath id="clip0_312_1181">
<rect width="106" height="66" fill="white"/>
</clipPath>
</defs>
</svg>
