<svg width="43" height="43" viewBox="0 0 43 43" fill="none" xmlns="http://www.w3.org/2000/svg">
<path d="M21.8115 41.3229C21.2955 41.3229 20.7795 41.3229 20.2635 41.3229C20.1775 41.3014 20.0915 41.2691 20.0055 41.2584C17.619 41.0864 15.3185 40.5166 13.1578 39.4739C7.03027 36.4854 3.28927 31.6371 1.96702 24.9506C1.82727 24.2196 1.76277 23.4779 1.65527 22.7361C1.65527 21.9084 1.65527 21.0806 1.65527 20.2529C1.68752 19.9949 1.71977 19.7476 1.75202 19.4896C2.21427 15.2434 3.79452 11.4701 6.68627 8.32039C11.556 3.02064 17.6083 0.892137 24.714 1.93489C28.756 2.52614 32.2928 4.31064 35.206 7.19164C40.366 12.2979 42.3225 18.4791 40.882 25.5849C39.6458 31.6586 36.109 36.1199 30.6803 39.0761C29.5193 39.7104 28.3045 40.1834 27.0145 40.5381C27.0145 35.6469 27.0145 30.7879 27.0145 25.8859C28.4335 25.8859 29.8418 25.8859 31.2608 25.8859C31.4758 24.2196 31.6908 22.5856 31.9058 20.9086C30.2395 20.9086 28.627 20.9086 27.0253 20.9086C27.0145 20.8119 26.993 20.7581 26.993 20.7151C26.993 19.5971 26.9823 18.4684 27.0038 17.3504C27.036 16.1141 27.6918 15.4476 28.9388 15.3831C29.831 15.3401 30.7233 15.3616 31.6155 15.3509C31.7553 15.3509 31.8843 15.3509 32.024 15.3509C32.024 13.8351 32.024 12.3839 32.024 10.9004C30.433 10.7714 28.8635 10.5994 27.294 10.7929C26.5308 10.8896 25.7353 11.0939 25.0365 11.4271C22.9725 12.4161 22.0695 14.2221 21.9083 16.4151C21.8115 17.7481 21.8653 19.1026 21.8545 20.4464C21.8545 20.5969 21.8545 20.7474 21.8545 20.9409C20.4033 20.9409 19.0165 20.9409 17.619 20.9409C17.619 22.6071 17.619 24.2304 17.619 25.8859C19.0273 25.8859 20.4248 25.8859 21.8545 25.8859C21.8545 26.0686 21.8545 26.2084 21.8545 26.3481C21.8545 31.2071 21.8545 36.0554 21.8545 40.9144C21.8438 41.0434 21.8223 41.1831 21.8115 41.3229Z" fill="white"/>
</svg>
