<svg width="44" height="44" viewBox="0 0 44 44" fill="none" xmlns="http://www.w3.org/2000/svg">
<g clip-path="url(#clip0_509_721)">
<g filter="url(#filter0_d_509_721)">
<path d="M23.2319 41.349C22.4289 41.349 21.6149 41.349 20.8119 41.349C20.3389 41.294 19.8659 41.239 19.3929 41.173C15.8179 40.667 12.6169 39.303 9.83385 37.015C6.12685 33.979 3.82785 30.096 2.96985 25.377C2.83785 24.662 2.77185 23.936 2.67285 23.21C2.67285 22.407 2.67285 21.593 2.67285 20.79C2.79385 19.943 2.88185 19.096 3.04685 18.26C4.63085 9.95503 11.7039 3.52003 20.1189 2.75003C24.2549 2.36503 28.1819 3.11303 31.7239 5.29103C38.6539 9.55903 41.8659 15.829 41.2609 23.947C40.9749 27.786 39.4899 31.218 37.0479 34.188C34.0119 37.895 30.1179 40.194 25.3989 41.052C24.6729 41.184 23.9469 41.25 23.2319 41.349ZM10.8459 22.011C10.9119 23.848 10.9229 25.707 11.0769 27.544C11.3079 30.36 13.2769 32.472 16.0599 32.868C17.4569 33.066 18.8979 33.088 20.3169 33.088C22.7259 33.088 25.1349 33.099 27.5329 32.934C29.7549 32.78 31.4489 31.636 32.4279 29.579C32.8569 28.677 33.0439 27.709 33.0659 26.719C33.1099 24.112 33.1319 21.505 33.1319 18.898C33.1319 18.084 33.0769 17.259 32.9889 16.445C32.7029 13.618 30.7889 11.528 27.9949 11.121C26.6089 10.923 25.1789 10.901 23.7819 10.901C21.3619 10.901 18.9419 10.89 16.5329 11.055C13.5299 11.264 11.3409 13.475 11.0989 16.478C10.9229 18.315 10.9229 20.163 10.8459 22.011Z" fill="white"/>
<path d="M12.8809 21.978C12.9249 20.295 12.9359 18.612 13.0349 16.94C13.1779 14.619 14.6519 13.079 16.9729 13.024C20.3279 12.936 23.6939 12.936 27.0489 13.024C29.4249 13.09 30.9429 14.608 30.9979 16.995C31.0859 20.35 31.0859 23.716 30.9979 27.071C30.9319 29.37 29.3919 30.855 27.0929 30.987C23.7049 31.185 20.3169 31.185 16.9399 30.987C14.6519 30.855 13.1779 29.37 13.0349 27.06C12.9359 25.366 12.9249 23.672 12.8809 21.978ZM22.0219 27.698C25.1679 27.698 27.7089 25.157 27.7199 22.011C27.7309 18.854 25.1789 16.291 22.0109 16.302C18.8649 16.302 16.3239 18.832 16.3129 21.989C16.3129 25.146 18.8649 27.709 22.0219 27.698ZM27.9399 17.402C28.6879 17.413 29.2819 16.819 29.2819 16.071C29.2819 15.345 28.6989 14.751 27.9729 14.751C27.2249 14.74 26.6309 15.334 26.6309 16.082C26.6309 16.808 27.2029 17.391 27.9399 17.402Z" fill="white"/>
<path d="M25.729 22.011C25.729 24.046 24.068 25.707 22.022 25.707C19.976 25.707 18.304 24.035 18.315 21.978C18.326 19.943 19.998 18.293 22.033 18.304C24.079 18.304 25.729 19.976 25.729 22.011Z" fill="white"/>
</g>
</g>
<defs>
<filter id="filter0_d_509_721" x="-1.32715" y="2.65332" width="46.6602" height="46.6958" filterUnits="userSpaceOnUse" color-interpolation-filters="sRGB">
<feFlood flood-opacity="0" result="BackgroundImageFix"/>
<feColorMatrix in="SourceAlpha" type="matrix" values="0 0 0 0 0 0 0 0 0 0 0 0 0 0 0 0 0 0 127 0" result="hardAlpha"/>
<feOffset dy="4"/>
<feGaussianBlur stdDeviation="2"/>
<feComposite in2="hardAlpha" operator="out"/>
<feColorMatrix type="matrix" values="0 0 0 0 0 0 0 0 0 0 0 0 0 0 0 0 0 0 0.25 0"/>
<feBlend mode="normal" in2="BackgroundImageFix" result="effect1_dropShadow_509_721"/>
<feBlend mode="normal" in="SourceGraphic" in2="effect1_dropShadow_509_721" result="shape"/>
</filter>
<clipPath id="clip0_509_721">
<rect width="44" height="44" fill="white"/>
</clipPath>
</defs>
</svg>
