<svg width="44" height="44" viewBox="0 0 44 44" fill="none" xmlns="http://www.w3.org/2000/svg">
<path d="M23.254 41.646C22.44 41.646 21.615 41.646 20.801 41.646C20.317 41.591 19.844 41.536 19.36 41.47C15.741 40.953 12.485 39.578 9.64698 37.246C5.89598 34.155 3.55298 30.217 2.68398 25.432C2.55198 24.706 2.47498 23.969 2.37598 23.232C2.37598 22.418 2.37598 21.593 2.37598 20.779C2.49698 19.921 2.59598 19.063 2.74998 18.205C4.36698 9.76795 11.55 3.23395 20.086 2.45295C24.277 2.06795 28.27 2.81595 31.867 5.03795C38.896 9.37195 42.163 15.741 41.547 23.98C41.261 27.874 39.743 31.361 37.268 34.386C34.188 38.148 30.239 40.48 25.443 41.36C24.717 41.47 23.98 41.547 23.254 41.646ZM33.539 32.043C33.55 31.9 33.55 31.79 33.561 31.669C33.561 29.073 33.572 26.477 33.561 23.881C33.561 23.331 33.528 22.781 33.451 22.242C33.11 19.437 31.427 17.677 28.721 17.369C26.785 17.149 25.135 17.721 23.958 19.382C23.914 19.448 23.848 19.503 23.727 19.657C23.727 18.942 23.727 18.326 23.727 17.688C22.11 17.688 20.548 17.688 18.975 17.688C18.975 22.484 18.975 27.258 18.975 32.043C20.57 32.043 22.132 32.043 23.738 32.043C23.738 31.867 23.738 31.724 23.738 31.57C23.738 29.656 23.738 27.731 23.738 25.817C23.738 25.058 23.738 24.31 23.771 23.551C23.804 22.682 24.244 22.022 24.937 21.538C26.312 20.581 28.105 21.186 28.556 22.792C28.71 23.32 28.754 23.903 28.765 24.453C28.787 26.84 28.776 29.238 28.776 31.625C28.776 31.757 28.776 31.9 28.776 32.043C30.382 32.043 31.944 32.043 33.539 32.043ZM11.55 17.655C11.55 22.484 11.55 27.258 11.55 32.032C13.145 32.032 14.718 32.032 16.313 32.032C16.313 31.856 16.313 31.702 16.313 31.559C16.313 27.258 16.313 22.968 16.313 18.667C16.313 18.447 16.291 18.227 16.313 18.018C16.346 17.721 16.225 17.655 15.939 17.655C14.685 17.666 13.431 17.666 12.177 17.666C11.99 17.655 11.781 17.655 11.55 17.655ZM13.783 10.725C12.914 10.758 12.012 11.099 11.506 12.1C10.857 13.387 11.429 14.927 12.76 15.488C14.256 16.115 16.027 15.433 16.5 14.036C17.061 12.331 15.851 10.736 13.783 10.725Z" fill="white"/>
</svg>
