<svg width="44" height="44" viewBox="0 0 44 44" fill="none" xmlns="http://www.w3.org/2000/svg">
<path d="M2.73877 23.2101C2.73877 22.4071 2.73877 21.6041 2.73877 20.8011C2.85977 19.9541 2.94777 19.1071 3.11277 18.2821C4.69677 9.9991 11.7478 3.5861 20.1298 2.8161C24.2438 2.4421 28.1598 3.1791 31.6908 5.3461C38.5878 9.6031 41.7888 15.8401 41.1948 23.9251C40.9088 27.7531 39.4238 31.1631 36.9928 34.1331C33.9678 37.8291 30.0958 40.1171 25.3878 40.9751C24.6728 41.1071 23.9468 41.1731 23.2318 41.2721C22.4288 41.2721 21.6258 41.2721 20.8228 41.2721C20.3498 41.2171 19.8768 41.1621 19.4148 41.0961C15.8618 40.5901 12.6608 39.2371 9.88877 36.9491C6.20377 33.9241 3.90477 30.0521 3.05777 25.3551C2.91477 24.6511 2.83777 23.9251 2.73877 23.2101ZM22.0658 30.5141C22.0658 30.4811 22.0658 30.4591 22.0658 30.4261C22.3408 30.4261 22.6158 30.4371 22.8908 30.4261C25.5308 30.3051 28.1818 30.2171 30.8218 30.0411C32.3508 29.9311 33.3628 29.0071 33.6158 27.4891C33.8358 26.1801 33.9458 24.8491 34.0118 23.5291C34.1328 21.2631 34.0558 18.9861 33.6818 16.7421C33.3958 15.0811 32.4168 14.1461 30.7448 13.9591C29.6008 13.8271 28.4458 13.7391 27.2908 13.6951C22.7588 13.5081 18.2378 13.4971 13.7168 13.8931C11.5718 14.0801 10.5818 15.0151 10.2848 17.1381C9.99877 19.2171 9.88877 21.3181 10.0098 23.4081C10.0868 24.8161 10.2078 26.2351 10.4498 27.6321C10.6698 28.9081 11.5278 29.6891 12.8038 29.9861C13.1778 30.0741 13.5738 30.1291 13.9588 30.1511C16.6538 30.2721 19.3598 30.3931 22.0658 30.5141Z" fill="white"/>
<path d="M19.6348 25.6081C19.6348 23.1881 19.6348 20.8341 19.6348 18.4031C21.7248 19.6021 23.7708 20.7901 25.8938 22.0001C23.7818 23.2211 21.7248 24.3981 19.6348 25.6081Z" fill="white"/>
</svg>
