<svg width="25" height="40" viewBox="0 0 25 40" fill="none" xmlns="http://www.w3.org/2000/svg">
<g clip-path="url(#clip0_312_1200)">
<path d="M17.2776 0C17.4099 0.0391321 17.5415 0.0821773 17.6746 0.117396C19.4526 0.591677 20.6552 2.36984 20.4036 4.15269C20.1274 6.1093 18.5855 7.46092 16.6728 7.4257C14.8794 7.39204 13.3421 5.96451 13.1398 4.14408C13.0399 3.22917 13.2756 2.30897 13.8017 1.55995C14.3278 0.810931 15.1071 0.285817 15.9904 0.0853079C16.0881 0.0626113 16.1827 0.0289577 16.2789 0H17.2776ZM18.1108 3.69876C18.1072 3.52024 18.0691 3.34418 17.9986 3.18064C17.9282 3.0171 17.8267 2.86928 17.7001 2.74562C17.5734 2.62197 17.4241 2.52489 17.2606 2.45995C17.0971 2.395 16.9226 2.36345 16.7471 2.3671C16.5716 2.37075 16.3985 2.40952 16.2377 2.48121C16.0769 2.5529 15.9316 2.6561 15.8101 2.78492C15.6885 2.91373 15.5931 3.06564 15.5292 3.23198C15.4654 3.39831 15.4344 3.5758 15.4379 3.75433C15.4452 4.11488 15.5929 4.45773 15.8487 4.70747C16.1044 4.9572 16.4472 5.09336 16.8017 5.08599C17.1561 5.07862 17.4932 4.92833 17.7387 4.66817C17.9842 4.40802 18.1181 4.05931 18.1108 3.69876Z" fill="white"/>
<path d="M12.505 39.993C10.0098 39.993 7.5147 40.0157 5.02031 39.979C4.29293 39.9732 3.56963 39.8679 2.86985 39.6659C0.610131 38.9905 -0.478565 36.9173 0.200043 34.6218C0.387897 34.0151 0.646186 33.4335 0.96944 32.889C3.20377 29.0361 5.46272 25.2011 7.70243 21.349C7.8336 21.1174 7.90605 20.8562 7.91324 20.589C7.93556 19.3791 7.91324 18.1683 7.93017 16.9576C7.93017 16.6891 7.85323 16.5843 7.60087 16.5021C6.31751 16.0802 5.44656 14.7458 5.4858 13.2933C5.52504 11.7483 6.43215 10.4703 7.75782 10.1275C8.0444 10.0607 8.33791 10.0296 8.63186 10.0351C11.216 10.0283 13.8004 10.0283 16.3851 10.0351C18.0108 10.0351 19.2034 11.0893 19.4834 12.7556C19.7612 14.4085 18.8679 16.0239 17.3722 16.5185C17.1414 16.5968 17.076 16.6923 17.0775 16.9231C17.0868 18.1855 17.0775 19.4487 17.0906 20.7111C17.1026 20.9152 17.1648 21.113 17.2714 21.2864C19.5283 25.1568 21.7891 29.0236 24.0536 32.8867C24.4822 33.6192 24.8377 34.3815 24.9531 35.2346C25.2524 37.4377 24.0921 39.1901 21.9232 39.7457C21.2904 39.9023 20.6417 39.983 19.9905 39.986C17.4953 40.0095 15.0032 39.993 12.505 39.993ZM12.5173 31.7573C9.92137 31.7573 7.32542 31.7628 4.72948 31.7503C4.42172 31.7503 4.24784 31.8481 4.09858 32.1212C3.72619 32.8021 3.3061 33.4564 2.93371 34.1373C2.72101 34.5069 2.54915 34.8993 2.42129 35.3074C2.11815 36.3632 2.50439 37.1075 3.54384 37.4135C4.06015 37.558 4.59329 37.6309 5.1288 37.6303C8.0702 37.6506 11.0116 37.6404 13.9522 37.6404C15.9475 37.6404 17.9426 37.6404 19.9374 37.6404C20.606 37.6404 21.2661 37.5786 21.8739 37.2577C22.4271 36.9658 22.7534 36.5001 22.661 35.8693C22.5887 35.3585 22.4371 34.8627 22.2117 34.4003C21.827 33.6247 21.3407 32.9015 20.9253 32.1408C20.7714 31.8544 20.5937 31.7495 20.2674 31.7495C17.6838 31.7636 15.1009 31.7573 12.5173 31.7573ZM5.72816 29.357H19.2765C19.1918 29.2051 19.1318 29.0924 19.068 28.9829C17.7277 26.6921 16.3828 24.4036 15.0517 22.1074C14.9132 21.8679 14.7755 21.5806 14.7724 21.3145C14.7493 19.3496 14.747 17.3841 14.7655 15.4181C14.7709 14.7584 15.2271 14.3107 15.8819 14.252C16.0596 14.2356 16.2397 14.2434 16.4205 14.2426C16.9513 14.2426 17.2076 13.9444 17.2045 13.3355C17.2014 12.7266 16.9275 12.4018 16.4212 12.4018C13.8104 12.3987 11.1998 12.3987 8.58954 12.4018C8.08636 12.4018 7.8163 12.7384 7.81553 13.341C7.81476 13.9436 8.06251 14.2442 8.60108 14.2442C8.7288 14.2442 8.85652 14.2442 8.98578 14.2442C9.78749 14.2676 10.2314 14.7239 10.2468 15.5449C10.2522 15.8259 10.2468 16.1068 10.2468 16.4199C10.533 16.4199 10.7639 16.4027 10.9908 16.4199C11.6471 16.477 12.1026 16.9998 12.0788 17.6486C12.0549 18.2802 11.581 18.7443 10.9247 18.7686C10.7123 18.7764 10.4984 18.7686 10.2738 18.7686V20.6955C10.5192 20.6955 10.7354 20.6876 10.9524 20.6955C11.1037 20.6981 11.253 20.7312 11.3917 20.7928C11.5304 20.8544 11.6557 20.9433 11.7605 21.0544C11.8653 21.1654 11.9474 21.2965 12.0022 21.44C12.0569 21.5835 12.0832 21.7367 12.0795 21.8906C12.0726 22.5378 11.5833 23.034 10.9254 23.0473C10.5038 23.0551 10.0791 23.0473 9.659 23.0528C9.56437 23.0528 9.42203 23.0692 9.38433 23.131C9.02117 23.7188 8.67572 24.3175 8.28794 24.9765C9.18352 24.9765 9.98754 24.9616 10.79 24.9851C11.0557 24.9891 11.317 25.0546 11.554 25.1769C11.9903 25.4218 12.1695 25.9736 12.0449 26.4659C11.9203 26.9582 11.4571 27.3268 10.8977 27.3268C9.65593 27.3338 8.41489 27.3268 7.17385 27.333C7.06229 27.333 6.89764 27.3714 6.84917 27.4504C6.47216 28.0664 6.11516 28.6941 5.72816 29.357Z" fill="white"/>
<path d="M8.68956 9.31353C7.85986 9.28445 7.07388 8.92795 6.49812 8.31956C5.92236 7.71116 5.60206 6.89866 5.60506 6.05419C5.60806 5.20971 5.93413 4.39959 6.5142 3.79544C7.09427 3.1913 7.88276 2.84059 8.71265 2.81761C9.14029 2.80577 9.56591 2.88142 9.96427 3.04008C10.3626 3.19873 10.7256 3.43716 11.0316 3.74122C11.3377 4.04527 11.5806 4.40876 11.7459 4.81012C11.9112 5.21147 11.9956 5.64252 11.9941 6.07768C11.9925 6.51284 11.9051 6.94325 11.7369 7.34338C11.5687 7.74351 11.3233 8.1052 11.0151 8.407C10.7069 8.7088 10.3422 8.94455 9.94273 9.10027C9.54326 9.256 9.11711 9.32852 8.68956 9.31353ZM8.70264 6.95387C8.93422 6.95346 9.15627 6.86008 9.32052 6.69403C9.48477 6.52798 9.57793 6.30269 9.57976 6.06714C9.57442 5.83168 9.47973 5.60746 9.31551 5.44144C9.1513 5.27542 8.93029 5.18047 8.6988 5.17649C8.46723 5.17937 8.24611 5.27497 8.08336 5.44257C7.92062 5.61017 7.82936 5.83626 7.82938 6.07183C7.82845 6.1886 7.85043 6.30439 7.89402 6.41241C7.93762 6.52044 8.00196 6.61853 8.08327 6.70096C8.16459 6.78338 8.26125 6.84848 8.3676 6.89244C8.47395 6.93641 8.58785 6.95835 8.70264 6.957V6.95387Z" fill="white"/>
</g>
<defs>
<clipPath id="clip0_312_1200">
<rect width="25" height="40" fill="white"/>
</clipPath>
</defs>
</svg>
