<svg width="76" height="76" viewBox="0 0 76 76" fill="none" xmlns="http://www.w3.org/2000/svg">
<g clip-path="url(#clip0_312_1174)">
<path d="M76 44.5184V74.3427C75.4062 75.6273 74.389 76.004 73.0115 75.996C65.4708 75.9524 57.9302 75.9742 50.3876 75.9742C48.5173 75.9742 47.69 75.1396 47.686 73.2503C47.686 72.1243 47.686 71.0002 47.686 69.783L46.9161 70.1418C45.4616 70.838 43.8712 71.2029 42.2592 71.2104C38.4018 71.2223 34.5404 71.2401 30.687 71.2104C25.9825 71.1707 22.61 66.2304 24.2745 61.8273C24.3553 61.6407 24.3908 61.4376 24.378 61.2347C24.3653 61.0317 24.3047 60.8346 24.2013 60.6596C22.8752 58.0388 21.5551 55.414 20.2647 52.7754C20.0272 52.2877 19.7521 52.1073 19.1999 52.1092C13.7611 52.1311 8.31448 52.0914 2.88167 52.1429C1.50813 52.1588 0.542292 51.7425 0 50.4539V1.63157C0.337332 0.913391 0.91501 0.336151 1.63281 0L62.3438 0C63.6639 0.493635 64.1092 1.47496 64.1012 2.84088C64.0676 8.50084 64.1013 14.1608 64.0775 19.8207C64.0775 20.3124 64.1923 20.5245 64.7148 20.6811C68.8948 21.9341 71.4321 24.765 72.1941 29.0214C72.9283 33.1291 71.6003 36.5647 68.309 39.2014C68.1487 39.3302 67.9923 39.469 67.7746 39.6534C69.8883 40.7081 71.9071 41.7409 73.9496 42.7242C74.8125 43.1405 75.5725 43.6282 76 44.5184ZM4.49667 4.4784V47.6388H17.6482C17.5117 47.3414 17.4088 47.0976 17.292 46.8616C16.3994 45.0774 15.487 43.2932 14.6122 41.4911C13.8957 40.0162 14.5766 38.561 16.1144 38.2022C17.1396 37.9643 18.054 38.448 18.624 39.578C19.8933 42.0892 21.1514 44.6076 22.3982 47.1332C22.5823 47.5079 22.7822 47.6824 23.2315 47.6824C30.7008 47.6685 38.1722 47.6824 45.6416 47.6507C45.7967 47.6294 45.9454 47.5746 46.0773 47.49C46.2092 47.4055 46.3212 47.2932 46.4055 47.161C46.8631 46.3703 47.2754 45.5542 47.6405 44.7166C47.9939 43.8933 48.6461 43.2351 49.4653 42.8749C51.4267 41.9412 53.3583 40.942 55.2999 39.9646C55.4879 39.8715 55.666 39.7565 55.8936 39.6217C55.7056 39.465 55.5809 39.354 55.4503 39.2509C52.0402 36.5568 50.7161 33.022 51.5355 28.8073C52.3371 24.6798 54.8566 21.938 58.9079 20.701C59.4601 20.5325 59.6442 20.3382 59.6402 19.7593C59.6165 14.9121 59.6264 10.065 59.6264 5.21786V4.4784H4.49667ZM71.5192 71.4998C71.531 71.3194 71.5449 71.1985 71.5449 71.0795C71.5449 63.0677 71.5502 55.0559 71.5607 47.044C71.5607 46.5782 71.3509 46.4096 70.9927 46.2332C68.115 44.8058 65.2432 43.3685 62.3774 41.9213C62.2101 41.8268 62.0203 41.7795 61.8283 41.7844C61.6363 41.7893 61.4492 41.8462 61.2869 41.9491C58.4672 43.3791 55.6383 44.7933 52.8002 46.1916C52.3173 46.4295 52.1233 46.6951 52.1253 47.2542C52.1451 55.0929 52.1497 62.9309 52.1392 70.7683V71.5097L71.5192 71.4998ZM55.7848 30.8215C55.7848 34.3304 58.4032 36.9533 61.9202 36.9513C65.1937 36.9513 67.9389 34.1996 67.9685 30.8948C67.9771 29.2824 67.3506 27.7316 66.225 26.5788C65.0994 25.4261 63.5654 24.7644 61.9558 24.7373C58.429 24.7115 55.7927 27.3066 55.7848 30.8215ZM47.6841 54.9719L47.5277 54.9204C46.6905 56.5877 45.8039 58.2331 45.03 59.9301C44.4481 61.2009 43.5456 61.7143 42.1681 61.6965C38.4334 61.6568 34.6968 61.6687 30.9621 61.6965C29.3332 61.7064 28.3159 62.7412 28.3377 64.2737C28.3575 65.7506 29.4045 66.7637 30.9858 66.7696C34.77 66.7835 38.5561 66.8073 42.3403 66.7597C44.4145 66.7339 46.1007 65.8299 47.3496 64.1547C47.5319 63.9277 47.6434 63.6519 47.6702 63.3617C47.6979 60.5585 47.6841 57.7652 47.6841 54.9719ZM27.6786 57.6721C29.1155 57.5115 30.3763 57.2756 31.637 57.2498C34.679 57.1903 37.7209 57.222 40.7609 57.2498C41.2221 57.2498 41.4715 57.111 41.6694 56.6947C42.3086 55.3585 42.9875 54.0422 43.6485 52.7139C43.7254 52.539 43.7914 52.3596 43.8465 52.1767H24.9375L27.6786 57.6721Z" fill="white"/>
<path d="M28.5772 19.0793C33.9434 19.0793 39.3089 19.0793 44.6738 19.0793C45.0195 19.071 45.3655 19.0876 45.7089 19.1289C46.2163 19.196 46.6812 19.448 47.0149 19.8367C47.3485 20.2255 47.5276 20.7237 47.5178 21.2362C47.5396 22.3821 46.8449 23.2663 45.7524 23.4586C45.4599 23.5059 45.164 23.5284 44.8677 23.526C33.9889 23.526 23.1101 23.526 12.2313 23.526C10.6677 23.526 9.82064 22.9313 9.60095 21.6863C9.53809 21.3886 9.5393 21.0809 9.6045 20.7837C9.66969 20.4865 9.79737 20.2067 9.97903 19.9628C10.1607 19.7189 10.3922 19.5167 10.658 19.3694C10.9238 19.2222 11.218 19.1335 11.5207 19.109C11.8405 19.0799 12.1616 19.0687 12.4826 19.0753L28.5772 19.0793Z" fill="white"/>
<path d="M24.9098 28.623C29.2343 28.623 33.5607 28.6111 37.8852 28.623C39.5992 28.623 40.6363 30.1118 40.0623 31.6542C39.7298 32.5383 38.9421 33.0538 37.8377 33.0637C36.1317 33.0776 34.4276 33.0637 32.7216 33.0637C25.8512 33.0637 18.9809 33.0637 12.1105 33.0637C10.7528 33.0637 9.90178 32.469 9.64251 31.3905C9.29022 29.9136 10.2501 28.6448 11.7939 28.6249C14.1174 28.5952 16.439 28.615 18.7625 28.6131L24.9098 28.623Z" fill="white"/>
<path d="M20.7535 13.9745C17.7848 13.9745 14.816 13.9904 11.8572 13.9745C10.2303 13.9626 9.23675 12.6502 9.65039 11.1296C9.91956 10.1384 10.7528 9.54367 11.964 9.54367C13.4959 9.52781 15.0278 9.54367 16.5597 9.54367C20.8861 9.54367 25.2106 9.54367 29.5351 9.54367C31.2946 9.54367 32.3415 10.8085 31.9299 12.3766C31.6587 13.4095 30.873 13.9824 29.6519 13.9884C26.6851 13.9824 23.7203 13.9765 20.7535 13.9745Z" fill="white"/>
</g>
<defs>
<clipPath id="clip0_312_1174">
<rect width="76" height="76" fill="white"/>
</clipPath>
</defs>
</svg>
