<svg width="38" height="38" viewBox="0 0 38 38" fill="none" xmlns="http://www.w3.org/2000/svg">
<g clip-path="url(#clip0_312_1211)">
<path d="M18.703 0H19.298C19.3678 0.0446827 19.4407 0.0844677 19.5161 0.119069C25.3423 2.30598 31.1698 4.48892 36.9986 6.66789C37.4685 6.84351 37.8235 7.09554 38.001 7.57182V30.452C37.8255 30.9094 37.4933 31.1743 37.0343 31.345C31.2266 33.5147 25.4219 35.6927 19.6202 37.8789C19.229 38.0368 18.7919 38.0368 18.4006 37.8789C12.5758 35.6887 6.74961 33.5018 0.922114 31.3182C0.211194 31.0513 0 30.7427 0 29.9787V8.03718C0 7.30292 0.223092 6.97846 0.903275 6.72246C5.9435 4.82727 10.9831 2.93374 16.022 1.04186C16.9193 0.704494 17.8097 0.347286 18.703 0ZM4.326 30.193C4.58479 30.2922 4.75434 30.3686 4.92686 30.4331C9.47992 32.1431 14.0327 33.8537 18.585 35.565C18.8556 35.6766 19.1593 35.6766 19.4298 35.565C23.6557 33.9695 27.8835 32.3803 32.1133 30.7973C32.618 30.6078 33.1217 30.4133 33.6819 30.202C33.5154 30.1345 33.4142 30.0908 33.3111 30.0521C28.7131 28.3269 24.1161 26.5991 19.5201 24.8686C19.3583 24.8008 19.1848 24.7659 19.0094 24.7659C18.8341 24.7659 18.6605 24.8008 18.4988 24.8686C15.3497 26.0653 12.1967 27.252 9.03969 28.4288L4.326 30.193ZM17.884 8.34379C17.7591 8.38149 17.6857 8.39935 17.6203 8.42515C12.6059 10.3064 7.59174 12.1861 2.57795 14.0641C2.32115 14.1633 2.22695 14.2754 2.22795 14.5602C2.23852 19.1007 2.2415 23.6416 2.23687 28.1827C2.23687 28.2998 2.24778 28.4159 2.25571 28.5608C2.3965 28.5141 2.5026 28.4854 2.60472 28.4467C7.59802 26.5733 12.5916 24.7009 17.5856 22.8296C17.8226 22.7413 17.895 22.6311 17.895 22.3811C17.8864 17.8167 17.884 13.2524 17.888 8.6881L17.884 8.34379ZM35.7542 28.5767C35.7612 28.4556 35.7681 28.3941 35.7681 28.3336C35.7681 23.7163 35.7711 19.0997 35.777 14.4838C35.777 14.1951 35.6243 14.1375 35.424 14.0621L20.5126 8.47179C20.3936 8.42714 20.2677 8.39737 20.1249 8.35569V22.7145L23.4643 23.9637V23.4398C23.4643 20.3202 23.4643 17.2012 23.4643 14.0829C23.4643 12.9676 24.1584 12.4864 25.2015 12.8764C26.9016 13.5134 28.6014 14.1494 30.3008 14.7844C31.0941 15.0821 31.2993 15.3748 31.2993 16.2272C31.2993 19.4076 31.2993 22.5885 31.2993 25.7696C31.2993 26.1387 31.1883 26.5971 31.3628 26.8541C31.5373 27.1111 32.0023 27.1677 32.3464 27.2986C33.4658 27.7233 34.5862 28.1401 35.7542 28.5767ZM35.7681 11.8008C35.7681 10.8522 35.7532 9.95222 35.776 9.05324C35.7849 8.71985 35.6947 8.56605 35.3645 8.44301C31.1189 6.86666 26.8778 5.27907 22.6414 3.68024L20.116 2.73661C20.116 3.72191 20.1279 4.66057 20.108 5.59825C20.1021 5.8731 20.2072 5.97728 20.4451 6.06659C25.0108 7.77325 29.5747 9.48487 34.137 11.2015C34.6665 11.3969 35.199 11.5904 35.7681 11.8018V11.8008ZM2.23191 11.7859C2.39948 11.7333 2.54127 11.6966 2.67611 11.646C7.29726 9.91352 11.9184 8.17941 16.5395 6.44364C16.9778 6.27893 17.5846 6.21741 17.7998 5.89691C18.0248 5.56153 17.8781 4.97214 17.8831 4.49288C17.889 3.92135 17.8831 3.34883 17.8831 2.73959C17.7224 2.79912 17.6193 2.83881 17.5172 2.87453C15.3107 3.70207 13.1039 4.52993 10.8968 5.35812C8.11262 6.40064 5.32909 7.44713 2.54622 8.49759C2.42327 8.54422 2.24877 8.68512 2.24877 8.78534C2.22299 9.77361 2.23191 10.7619 2.23191 11.7869V11.7859ZM25.7309 15.478C25.719 15.5911 25.7061 15.6616 25.7061 15.733C25.7061 18.6631 25.7061 21.5942 25.6992 24.5253C25.6992 24.7575 25.7875 24.8428 25.9907 24.9163C26.9178 25.2516 27.8399 25.6059 28.767 25.9512C28.8532 25.9829 28.9444 25.9978 29.0317 26.0206C29.0453 25.9887 29.0556 25.9554 29.0624 25.9214C29.0624 22.9288 29.0694 19.9362 29.0565 16.9436C29.0565 16.8344 28.9107 16.6717 28.7967 16.6261C27.948 16.2897 27.0913 15.9751 26.2366 15.6556C26.071 15.5951 25.9114 15.5435 25.726 15.479L25.7309 15.478Z" fill="white"/>
<path d="M4.46185 20.095C4.46185 19.2288 4.46185 18.3625 4.46185 17.4963C4.46185 16.8166 4.69982 16.4792 5.34133 16.2381C8.22071 15.1559 11.1004 14.076 13.9804 12.9985C14.9492 12.6363 15.6531 13.1354 15.6541 14.1792C15.6541 15.9117 15.6541 17.6441 15.6541 19.3766C15.6541 20.1019 15.4241 20.4383 14.7439 20.6933C11.8764 21.7689 9.0083 22.8422 6.1395 23.9131C5.17178 24.2743 4.46879 23.7732 4.46582 22.7294C4.46185 21.8523 4.46185 20.9741 4.46185 20.095ZM13.4133 15.6418C13.3651 15.6411 13.3169 15.6454 13.2695 15.6547C11.1417 16.4485 9.01392 17.2423 6.89108 18.0549C6.79787 18.0907 6.70963 18.2732 6.70665 18.3893C6.68881 19.0839 6.69773 19.7785 6.69773 20.473V21.3115C6.93966 21.2252 7.11219 21.1656 7.28372 21.1011C9.2152 20.3788 11.1454 19.6538 13.0742 18.9261C13.2031 18.8765 13.3964 18.7465 13.3994 18.6503C13.4262 17.6491 13.4163 16.6509 13.4163 15.6418H13.4133Z" fill="white"/>
</g>
<defs>
<clipPath id="clip0_312_1211">
<rect width="38" height="38" fill="white"/>
</clipPath>
</defs>
</svg>
