<svg width="314" height="291" viewBox="0 0 314 291" fill="none" xmlns="http://www.w3.org/2000/svg">
<g clip-path="url(#clip0_49_485)">
<g filter="url(#filter0_d_49_485)">
<path d="M148.348 291H4.26069C3.13197 291 2.04938 290.552 1.25056 289.755C0.451742 288.958 0.00197673 287.876 0 286.748L0 4.25956C0 3.12985 0.448893 2.04642 1.24793 1.24759C2.04696 0.448773 3.13068 0 4.26069 0L148.348 0C149.477 0.00197621 150.559 0.451622 151.356 1.25023C152.153 2.04884 152.601 3.13114 152.601 4.25956V286.748C152.599 287.875 152.151 288.955 151.353 289.752C150.556 290.549 149.475 290.998 148.348 291ZM4.26069 0.186495C3.18076 0.188467 2.14564 0.618225 1.38201 1.38165C0.61839 2.14507 0.188517 3.17992 0.186545 4.25956V286.748C0.188522 287.827 0.618633 288.861 1.38247 289.623C2.1463 290.385 3.18145 290.814 4.26069 290.814H148.348C149.427 290.814 150.461 290.385 151.224 289.623C151.986 288.86 152.415 287.826 152.415 286.748V4.25956C152.415 3.1806 151.987 2.14573 151.224 1.3821C150.462 0.618469 149.427 0.188472 148.348 0.186495H4.26069Z" fill="#EBEBEB"/>
<path d="M309.739 291H165.652C164.524 290.998 163.444 290.549 162.646 289.752C161.849 288.955 161.4 287.875 161.398 286.748V4.25956C161.398 3.13114 161.846 2.04884 162.644 1.25023C163.441 0.451622 164.523 0.00197621 165.652 0L309.739 0C310.869 0 311.953 0.448773 312.752 1.24759C313.551 2.04642 314 3.12985 314 4.25956V286.748C313.998 287.876 313.548 288.958 312.749 289.755C311.95 290.552 310.868 291 309.739 291ZM165.652 0.186495C164.572 0.188472 163.538 0.618469 162.776 1.3821C162.013 2.14573 161.585 3.1806 161.585 4.25956V286.748C161.587 287.826 162.016 288.859 162.778 289.621C163.54 290.383 164.574 290.812 165.652 290.814H309.739C310.818 290.814 311.853 290.385 312.617 289.623C313.381 288.861 313.811 287.827 313.813 286.748V4.25956C313.811 3.17992 313.381 2.14507 312.618 1.38165C311.854 0.618225 310.819 0.188467 309.739 0.186495H165.652Z" fill="#EBEBEB"/>
<path d="M54.8146 84.5197L56.0234 86.9591L58.7172 87.3545L56.7696 89.2567L57.2248 91.9422L54.8146 90.6741L52.4045 91.9422L52.8596 89.2567L50.9121 87.3545L53.6058 86.9591L54.8146 84.5197Z" fill="#EBEBEB"/>
<path d="M296.316 199.572L297.524 202.019L300.218 202.407L298.271 204.309L298.726 206.995L296.316 205.727L293.905 206.995L294.361 204.309L292.413 202.407L295.107 202.019L296.316 199.572Z" fill="#F5F5F5"/>
<path d="M248.478 270.5L249.687 272.947L252.388 273.343L250.433 275.237L250.895 277.93L248.478 276.662L246.068 277.93L246.53 275.237L244.575 273.343L247.276 272.947L248.478 270.5Z" fill="#F5F5F5"/>
<path d="M139.05 41.1782L139.498 42.0883L140.498 42.23C140.555 42.2378 140.608 42.2614 140.652 42.2981C140.696 42.3348 140.729 42.3831 140.747 42.4375C140.765 42.492 140.767 42.5503 140.753 42.606C140.74 42.6616 140.711 42.7123 140.67 42.7522L139.923 43.4609L140.095 44.4531C140.105 44.5097 140.098 44.568 140.077 44.6211C140.055 44.6743 140.018 44.7203 139.972 44.7538C139.925 44.7873 139.87 44.8069 139.812 44.8105C139.755 44.814 139.698 44.8013 139.647 44.7738L138.752 44.3039L137.856 44.7738C137.806 44.8024 137.749 44.8159 137.692 44.8128C137.634 44.8096 137.579 44.7899 137.532 44.756C137.486 44.7221 137.45 44.6754 137.429 44.6217C137.409 44.5679 137.404 44.5094 137.416 44.4531L137.588 43.4609L136.842 42.7522C136.801 42.7123 136.772 42.6616 136.758 42.606C136.744 42.5503 136.746 42.492 136.764 42.4375C136.782 42.3831 136.815 42.3348 136.859 42.2981C136.903 42.2614 136.956 42.2378 137.013 42.23L138.013 42.0883L138.461 41.1782C138.479 41.1138 138.517 41.0571 138.57 41.0166C138.624 40.9762 138.689 40.9543 138.756 40.9543C138.822 40.9543 138.887 40.9762 138.941 41.0166C138.994 41.0571 139.032 41.1138 139.05 41.1782Z" fill="#EBEBEB"/>
<path d="M15.8044 258.893L16.2521 259.803L17.252 259.952C17.3088 259.958 17.3627 259.981 17.4072 260.017C17.4517 260.052 17.485 260.1 17.503 260.155C17.5211 260.209 17.5232 260.267 17.5092 260.322C17.4951 260.378 17.4654 260.428 17.4236 260.467L16.6774 261.176L16.8491 262.175C16.8579 262.231 16.8511 262.288 16.8296 262.34C16.8081 262.392 16.7726 262.437 16.7271 262.47C16.6815 262.503 16.6277 262.523 16.5716 262.528C16.5154 262.533 16.4591 262.521 16.4088 262.496L15.5134 262.026L14.618 262.496C14.5672 262.521 14.5108 262.531 14.4546 262.526C14.3984 262.522 14.3445 262.502 14.2987 262.469C14.2528 262.436 14.2167 262.391 14.1941 262.34C14.1715 262.288 14.1633 262.231 14.1703 262.175L14.3419 261.176L13.5957 260.467C13.5539 260.428 13.5243 260.378 13.5102 260.322C13.4961 260.267 13.4982 260.209 13.5163 260.155C13.5344 260.1 13.5676 260.052 13.6121 260.017C13.6566 259.981 13.7105 259.958 13.7673 259.952L14.7672 259.803L15.2149 258.893C15.2328 258.829 15.2714 258.772 15.3246 258.731C15.3778 258.691 15.4428 258.669 15.5097 258.669C15.5765 258.669 15.6415 258.691 15.6947 258.731C15.748 258.772 15.7865 258.829 15.8044 258.893Z" fill="#F5F5F5"/>
<path d="M35.936 31.5923L36.3837 32.495L37.3836 32.6442C37.4404 32.652 37.4938 32.6756 37.5378 32.7123C37.5818 32.749 37.6146 32.7973 37.6325 32.8517C37.6504 32.9061 37.6526 32.9645 37.639 33.0201C37.6253 33.0757 37.5963 33.1264 37.5552 33.1663L36.8091 33.8676L36.9807 34.8672C36.9905 34.9238 36.9841 34.9821 36.9623 35.0353C36.9405 35.0885 36.9042 35.1344 36.8574 35.1679C36.8107 35.2014 36.7555 35.221 36.6981 35.2246C36.6407 35.2281 36.5835 35.2154 36.533 35.188L35.6376 34.718L34.7421 35.188C34.6919 35.2134 34.6355 35.2244 34.5794 35.2199C34.5232 35.2153 34.4694 35.1954 34.4239 35.1622C34.3783 35.129 34.3429 35.0839 34.3213 35.0319C34.2998 34.9798 34.2931 34.9228 34.3019 34.8672L34.4735 33.8676L33.7273 33.1663C33.6863 33.1264 33.6573 33.0757 33.6436 33.0201C33.6299 32.9645 33.6322 32.9061 33.6501 32.8517C33.6679 32.7973 33.7008 32.749 33.7448 32.7123C33.7888 32.6756 33.8422 32.652 33.899 32.6442L34.8988 32.495L35.3465 31.5923C35.3577 31.5222 35.3936 31.4584 35.4476 31.4123C35.5016 31.3663 35.5703 31.341 35.6413 31.341C35.7123 31.341 35.781 31.3663 35.835 31.4123C35.889 31.4584 35.9248 31.5222 35.936 31.5923Z" fill="#EBEBEB"/>
<path d="M34.7276 211.389C34.7217 211.584 34.6585 211.772 34.546 211.932C34.4334 212.091 34.2765 212.213 34.0947 212.284C33.9129 212.354 33.7144 212.37 33.5239 212.328C33.3334 212.287 33.1593 212.19 33.0235 212.05C32.8877 211.91 32.7961 211.733 32.7602 211.542C32.7242 211.35 32.7455 211.152 32.8215 210.973C32.8974 210.793 33.0245 210.64 33.187 210.532C33.3495 210.424 33.5401 210.367 33.7351 210.367C33.868 210.367 33.9995 210.393 34.1219 210.445C34.2443 210.497 34.3551 210.573 34.4477 210.668C34.5402 210.763 34.6127 210.876 34.6608 211C34.7088 211.124 34.7316 211.256 34.7276 211.389Z" fill="#EBEBEB"/>
<path d="M176.158 87.2351C176.158 87.4313 176.099 87.6232 175.99 87.7863C175.881 87.9495 175.726 88.0766 175.545 88.1517C175.364 88.2268 175.164 88.2465 174.972 88.2082C174.779 88.1699 174.602 88.0754 174.464 87.9367C174.325 87.7979 174.23 87.6211 174.192 87.4287C174.154 87.2362 174.173 87.0367 174.248 86.8554C174.324 86.6741 174.451 86.5192 174.614 86.4102C174.777 86.3011 174.969 86.2429 175.165 86.2429C175.428 86.2449 175.679 86.3501 175.865 86.5357C176.051 86.7213 176.156 86.9726 176.158 87.2351Z" fill="#EBEBEB"/>
<path d="M124.694 32.4129C124.694 32.6094 124.635 32.8016 124.526 32.9649C124.417 33.1282 124.261 33.2554 124.079 33.3302C123.898 33.4051 123.698 33.4243 123.505 33.3854C123.312 33.3465 123.135 33.2513 122.997 33.1118C122.859 32.9723 122.765 32.7948 122.727 32.6018C122.69 32.4089 122.71 32.2092 122.787 32.028C122.863 31.8469 122.991 31.6924 123.155 31.5843C123.32 31.4762 123.512 31.4193 123.709 31.4207C123.971 31.4227 124.221 31.5281 124.406 31.714C124.59 31.8998 124.694 32.1511 124.694 32.4129Z" fill="#F5F5F5"/>
<path d="M126.269 274.214C129.217 273.518 131.042 270.565 130.346 267.618C129.651 264.671 126.697 262.845 123.749 263.541C120.801 264.237 118.975 267.19 119.671 270.137C120.367 273.084 123.321 274.909 126.269 274.214Z" fill="#F0F0F0"/>
<path d="M123.12 265.674C121.996 265.672 120.901 266.027 119.993 266.688C119.53 267.752 119.416 268.935 119.668 270.068C119.921 271.2 120.526 272.223 121.398 272.989C122.27 273.755 123.362 274.224 124.518 274.329C125.673 274.435 126.833 274.17 127.828 273.574C128.271 272.759 128.494 271.843 128.475 270.915C128.456 269.988 128.197 269.082 127.722 268.285C127.247 267.488 126.573 266.828 125.766 266.371C124.96 265.913 124.048 265.673 123.12 265.674Z" fill="#E6E6E6"/>
<path d="M80.6547 173.582H35.2422V153.09L80.6547 99.1261H102.376V154.254H113.636V173.582H102.376V190.345H80.6547V173.582ZM80.6547 154.254V126.026L56.6576 154.254H80.6547Z" fill="#407BFF"/>
<path d="M121.411 145.138C121.411 128.085 124.48 116.149 130.619 109.331C136.757 102.513 146.109 99.1062 158.675 99.1111C164.719 99.1111 169.676 99.8571 173.546 101.349C177.073 102.622 180.303 104.602 183.038 107.168C185.34 109.363 187.29 111.899 188.821 114.687C190.331 117.605 191.472 120.7 192.216 123.9C193.917 130.747 194.769 137.777 194.753 144.832C194.753 161.105 191.999 173.013 186.492 180.557C180.986 188.102 171.499 191.874 158.033 191.874C150.487 191.874 144.388 190.673 139.737 188.271C135.046 185.825 131.094 182.171 128.29 177.685C126.127 174.378 124.445 169.86 123.246 164.131C121.979 157.88 121.364 151.516 121.411 145.138ZM146.132 145.198C146.132 156.636 147.141 164.437 149.161 168.599C151.181 172.762 154.108 174.851 157.944 174.866C159.162 174.881 160.371 174.654 161.501 174.198C162.631 173.742 163.658 173.066 164.525 172.21C166.375 170.434 167.741 167.63 168.621 163.795C169.502 159.961 169.94 153.993 169.935 145.892C169.935 133.956 168.927 125.952 166.913 121.878C164.898 117.805 161.869 115.756 157.824 115.732C153.695 115.732 150.711 117.82 148.87 121.998C147.03 126.175 146.117 133.909 146.132 145.198Z" fill="#407BFF"/>
<path d="M247.844 173.582H202.432V153.09L247.844 99.1261H269.565V154.254H280.833V173.582H269.565V190.345H247.844V173.582ZM247.844 154.254V126.026L223.854 154.254H247.844Z" fill="#407BFF"/>
<g opacity="0.3">
<path d="M120.404 67.6382C120.404 67.9141 120.322 68.1838 120.169 68.4132C120.016 68.6426 119.798 68.8214 119.543 68.927C119.288 69.0325 119.007 69.0602 118.736 69.0063C118.466 68.9525 118.217 68.8197 118.022 68.6246C117.827 68.4295 117.694 68.1809 117.64 67.9103C117.586 67.6397 117.614 67.3592 117.719 67.1043C117.825 66.8494 118.004 66.6316 118.233 66.4783C118.463 66.325 118.733 66.2432 119.009 66.2432C119.379 66.2432 119.734 66.3901 119.995 66.6518C120.257 66.9134 120.404 67.2682 120.404 67.6382Z" fill="#407BFF"/>
<path d="M24.9 121.222C25.444 121.222 25.885 120.781 25.885 120.237C25.885 119.693 25.444 119.253 24.9 119.253C24.356 119.253 23.915 119.693 23.915 120.237C23.915 120.781 24.356 121.222 24.9 121.222Z" fill="#407BFF"/>
<path d="M187.635 265.025C188.414 265.025 189.045 264.394 189.045 263.615C189.045 262.836 188.414 262.205 187.635 262.205C186.856 262.205 186.225 262.836 186.225 263.615C186.225 264.394 186.856 265.025 187.635 265.025Z" fill="#407BFF"/>
<path d="M221.541 207.659C222.085 207.659 222.526 207.218 222.526 206.674C222.526 206.13 222.085 205.69 221.541 205.69C220.997 205.69 220.556 206.13 220.556 206.674C220.556 207.218 220.997 207.659 221.541 207.659Z" fill="#407BFF"/>
<path d="M286.965 30.3391C286.944 30.5864 286.831 30.8167 286.647 30.9844C286.464 31.1522 286.225 31.2453 285.977 31.2453C285.728 31.2453 285.489 31.1522 285.306 30.9844C285.123 30.8167 285.01 30.5864 284.988 30.3391C284.976 30.2021 284.993 30.0641 285.037 29.9338C285.081 29.8036 285.152 29.684 285.245 29.5826C285.338 29.4813 285.451 29.4003 285.577 29.3449C285.703 29.2896 285.839 29.261 285.977 29.261C286.114 29.261 286.25 29.2896 286.376 29.3449C286.502 29.4003 286.615 29.4813 286.708 29.5826C286.801 29.684 286.872 29.8036 286.916 29.9338C286.961 30.0641 286.977 30.2021 286.965 30.3391Z" fill="#407BFF"/>
<path d="M99.3618 10.4437C99.3632 10.6406 99.3061 10.8334 99.1976 10.9977C99.0891 11.162 98.9342 11.2904 98.7526 11.3664C98.5709 11.4424 98.3708 11.4627 98.1776 11.4246C97.9844 11.3866 97.8069 11.2919 97.6676 11.1527C97.5284 11.0135 97.4337 10.8361 97.3957 10.6429C97.3576 10.4498 97.3779 10.2497 97.4539 10.0681C97.53 9.88647 97.6583 9.7316 97.8227 9.62315C97.987 9.5147 98.1799 9.45758 98.3768 9.45905C98.638 9.45905 98.8886 9.56279 99.0733 9.74746C99.258 9.93213 99.3618 10.1826 99.3618 10.4437Z" fill="#407BFF"/>
<path d="M177.666 62.1477C178.21 62.1477 178.651 61.7069 178.651 61.163C178.651 60.6192 178.21 60.1783 177.666 60.1783C177.122 60.1783 176.681 60.6192 176.681 61.163C176.681 61.7069 177.122 62.1477 177.666 62.1477Z" fill="#407BFF"/>
</g>
<path d="M75.842 62.1552C84.8712 62.1552 92.1908 54.8375 92.1908 45.8107C92.1908 36.7839 84.8712 29.4663 75.842 29.4663C66.8128 29.4663 59.4932 36.7839 59.4932 45.8107C59.4932 54.8375 66.8128 62.1552 75.842 62.1552Z" fill="#407BFF"/>
<path opacity="0.7" d="M75.842 62.1552C84.8712 62.1552 92.1908 54.8375 92.1908 45.8107C92.1908 36.7839 84.8712 29.4663 75.842 29.4663C66.8128 29.4663 59.4932 36.7839 59.4932 45.8107C59.4932 54.8375 66.8128 62.1552 75.842 62.1552Z" fill="white"/>
<path opacity="0.2" d="M70.2078 33.4797C67.9913 33.4763 65.7974 33.9256 63.7608 34.8001C61.2506 37.5638 59.7619 41.1031 59.5421 44.8297C59.3222 48.5563 60.3845 52.246 62.5523 55.2855C64.7202 58.3251 67.8631 60.5316 71.4588 61.5384C75.0545 62.5452 78.8866 62.2916 82.3183 60.8199C84.4466 58.475 85.8482 55.5628 86.3528 52.4368C86.8574 49.3109 86.4434 46.1057 85.1609 43.2105C83.8785 40.3153 81.7828 37.8546 79.1284 36.1272C76.474 34.3999 73.375 33.4801 70.2078 33.4797Z" fill="#407BFF"/>
<path opacity="0.2" d="M68.5814 37.7989C68.5814 38.094 68.4939 38.3824 68.3299 38.6278C68.1659 38.8731 67.9328 39.0644 67.6601 39.1773C67.3874 39.2902 67.0874 39.3198 66.7979 39.2622C66.5084 39.2046 66.2425 39.0625 66.0338 38.8539C65.8251 38.6452 65.6829 38.3794 65.6254 38.09C65.5678 37.8006 65.5973 37.5006 65.7103 37.2279C65.8232 36.9553 66.0145 36.7223 66.2599 36.5584C66.5053 36.3944 66.7939 36.3069 67.089 36.3069C67.4848 36.3069 67.8644 36.4641 68.1443 36.7439C68.4242 37.0237 68.5814 37.4032 68.5814 37.7989Z" fill="#407BFF"/>
<path opacity="0.2" d="M86.1615 36.3069C86.1615 36.602 86.074 36.8905 85.91 37.1358C85.746 37.3812 85.5129 37.5724 85.2402 37.6853C84.9675 37.7982 84.6675 37.8278 84.378 37.7702C84.0885 37.7127 83.8226 37.5706 83.6139 37.3619C83.4052 37.1533 83.263 36.8874 83.2054 36.598C83.1479 36.3086 83.1774 36.0086 83.2904 35.736C83.4033 35.4634 83.5946 35.2303 83.84 35.0664C84.0854 34.9025 84.374 34.815 84.6691 34.815C85.0649 34.815 85.4445 34.9722 85.7244 35.252C86.0043 35.5317 86.1615 35.9112 86.1615 36.3069Z" fill="#407BFF"/>
<path opacity="0.2" d="M83.1694 46.9968C83.1694 47.4811 83.0256 47.9545 82.7564 48.357C82.4871 48.7595 82.1044 49.0732 81.6568 49.2581C81.2091 49.4431 80.7166 49.4911 80.2417 49.3961C79.7667 49.3011 79.3306 49.0673 78.9886 48.7244C78.6466 48.3814 78.4141 47.9447 78.3205 47.4696C78.2269 46.9945 78.2765 46.5023 78.4629 46.0553C78.6493 45.6083 78.9641 45.2267 79.3676 44.9588C79.771 44.6908 80.245 44.5486 80.7294 44.55C81.0504 44.55 81.3683 44.6134 81.6648 44.7364C81.9613 44.8595 82.2307 45.0398 82.4573 45.2671C82.684 45.4944 82.8636 45.7642 82.9858 46.0611C83.1079 46.3579 83.1703 46.6759 83.1694 46.9968Z" fill="#407BFF"/>
<path opacity="0.2" d="M75.4018 53.927C75.4018 54.5733 75.2101 55.205 74.851 55.7423C74.4918 56.2796 73.9814 56.6984 73.3842 56.9457C72.787 57.193 72.1299 57.2577 71.4959 57.1316C70.8619 57.0056 70.2796 56.6944 69.8225 56.2374C69.3654 55.7805 69.0541 55.1983 68.928 54.5645C68.8019 53.9306 68.8666 53.2737 69.114 52.6766C69.3614 52.0796 69.7803 51.5693 70.3178 51.2103C70.8552 50.8512 71.4871 50.6596 72.1335 50.6596C73.0003 50.6596 73.8316 51.0039 74.4445 51.6166C75.0574 52.2294 75.4018 53.0605 75.4018 53.927Z" fill="#407BFF"/>
<path d="M269.604 242.97C271.424 235.259 266.647 227.533 258.935 225.713C251.222 223.893 243.493 228.668 241.673 236.379C239.853 244.09 244.629 251.816 252.342 253.636C260.055 255.456 267.783 250.68 269.604 242.97Z" fill="#407BFF"/>
<path opacity="0.3" d="M269.604 242.97C271.424 235.259 266.647 227.533 258.935 225.713C251.222 223.893 243.493 228.668 241.673 236.379C239.853 244.09 244.629 251.816 252.342 253.636C260.055 255.456 267.783 250.68 269.604 242.97Z" fill="white"/>
<path opacity="0.4" d="M264.699 228.561C261.52 227.608 258.108 227.786 255.045 229.066C251.983 230.345 249.458 232.647 247.902 235.578C246.347 238.51 245.855 241.89 246.513 245.142C247.17 248.395 248.935 251.32 251.507 253.417C254.687 254.371 258.098 254.192 261.161 252.913C264.224 251.634 266.748 249.332 268.304 246.401C269.86 243.469 270.351 240.089 269.694 236.836C269.037 233.584 267.272 230.659 264.699 228.561Z" fill="#407BFF"/>
<path d="M241.941 243.936C226.615 251.142 238.046 256.692 259.633 248.942C279.616 241.758 287.242 232.702 269.371 235.514C270.288 239.318 245.262 249.068 241.941 243.936Z" fill="#407BFF"/>
<path opacity="0.2" d="M264.521 99.1261C244.456 112.681 218.482 130.554 211.311 173.582H209.781C216.758 131.062 241.785 112.733 261.857 99.1261H264.521Z" fill="black"/>
<path d="M160.742 233.724C148.057 233.724 135.521 228.009 129.402 218.67C125.634 212.896 121.254 200.803 134.29 184.668L135.454 185.608C126.231 197.021 124.522 208.472 130.648 217.849C138.11 229.27 155.72 235.007 170.741 230.926C186.149 226.778 195.499 213.351 196.394 194.201C199.483 128.704 234.293 108.525 259.708 93.7923C275.497 84.6391 286.906 78.0222 284.399 64.0724C284.317 63.2647 284.066 62.4833 283.663 61.7789C283.259 61.0746 282.711 60.4631 282.056 59.9844C278.81 57.8434 272.467 59.3205 265.117 61.0362C250.716 64.3857 230.987 68.9884 219.235 48.9961L220.518 48.2501C231.711 67.2875 250.052 63.0205 264.782 59.589C272.46 57.7987 279.093 56.2545 282.876 58.7461C284.473 59.7979 285.458 61.454 285.861 63.8187C288.555 78.798 276.161 85.9893 260.446 95.0903C235.33 109.652 200.931 129.592 197.879 194.306C196.991 214.097 187.209 228.002 171.151 232.366C167.757 233.279 164.256 233.735 160.742 233.724Z" fill="#407BFF"/>
<path opacity="0.2" d="M160.742 233.724C148.057 233.724 135.521 228.009 129.402 218.67C125.634 212.896 121.254 200.803 134.29 184.668L135.454 185.608C126.231 197.021 124.522 208.472 130.648 217.849C138.11 229.27 155.72 235.007 170.741 230.926C186.149 226.778 195.499 213.351 196.394 194.201C199.483 128.704 234.293 108.525 259.708 93.7923C275.497 84.6391 286.906 78.0222 284.399 64.0724C284.317 63.2647 284.066 62.4833 283.663 61.7789C283.259 61.0746 282.711 60.4631 282.056 59.9844C278.81 57.8434 272.467 59.3205 265.117 61.0362C250.716 64.3857 230.987 68.9884 219.235 48.9961L220.518 48.2501C231.711 67.2875 250.052 63.0205 264.782 59.589C272.46 57.7987 279.093 56.2545 282.876 58.7461C284.473 59.7979 285.458 61.454 285.861 63.8187C288.555 78.798 276.161 85.9893 260.446 95.0903C235.33 109.652 200.931 129.592 197.879 194.306C196.991 214.097 187.209 228.002 171.151 232.366C167.757 233.279 164.256 233.735 160.742 233.724Z" fill="white"/>
<path d="M203.826 31.3312C207.267 31.3507 210.685 31.8863 213.967 32.9202C213.967 32.9202 222.175 46.9222 223.145 50.13C222.802 53.2929 217.459 58.4775 217.459 58.4775L203.826 31.3312Z" fill="#407BFF"/>
<path opacity="0.3" d="M203.826 31.3312C207.267 31.3507 210.685 31.8863 213.967 32.9202C213.967 32.9202 222.175 46.9222 223.145 50.13C222.802 53.2929 217.459 58.4775 217.459 58.4775L203.826 31.3312Z" fill="white"/>
<path d="M228.144 99.3498C224.982 95.4847 222.099 91.3987 219.518 87.1232C218.892 86.049 218.295 84.9449 217.735 83.8334C217.414 83.1993 217.101 82.5578 216.802 81.9163C216.412 81.2951 216.11 80.6221 215.907 79.917C215.011 70.4654 218.25 63.5054 215.161 55.9188L202.871 60.7155C202.871 60.7155 203.916 74.2401 206.304 82.3489C207.796 87.3619 211.131 91.711 214.362 95.7244C215.377 96.9851 216.347 98.2682 217.347 99.5289C218.347 100.79 219.369 101.819 220.332 103.005C221.779 104.803 222.264 106.519 221.16 108.645C221.1 108.757 221.041 108.869 220.973 108.98C220.66 109.532 222.13 110.159 223.055 108.98C224.548 107.056 224.339 107.175 225.637 105.534C226.421 104.534 227.331 103.46 228.114 102.55C228.488 102.102 228.695 101.539 228.7 100.955C228.706 100.372 228.509 99.8049 228.144 99.3498Z" fill="#407BFF"/>
<path opacity="0.7" d="M228.144 99.3498C224.982 95.4847 222.099 91.3987 219.518 87.1232C218.892 86.049 218.295 84.9449 217.735 83.8334C217.414 83.1993 217.101 82.5578 216.802 81.9163C216.412 81.2951 216.11 80.6221 215.907 79.917C215.011 70.4654 218.25 63.5054 215.161 55.9188L202.871 60.7155C202.871 60.7155 203.916 74.2401 206.304 82.3489C207.796 87.3619 211.131 91.711 214.362 95.7244C215.377 96.9851 216.347 98.2682 217.347 99.5289C218.347 100.79 219.369 101.819 220.332 103.005C221.779 104.803 222.264 106.519 221.16 108.645C221.1 108.757 221.041 108.869 220.973 108.98C220.66 109.532 222.13 110.159 223.055 108.98C224.548 107.056 224.339 107.175 225.637 105.534C226.421 104.534 227.331 103.46 228.114 102.55C228.488 102.102 228.695 101.539 228.7 100.955C228.706 100.372 228.509 99.8049 228.144 99.3498Z" fill="white"/>
<path opacity="0.3" d="M225.137 95.4857C223.184 97.5771 221.015 99.4574 218.668 101.095L219.631 102.185C221.976 100.597 224.108 98.714 225.973 96.5823C225.69 96.2316 225.413 95.8288 225.137 95.4857Z" fill="#407BFF"/>
<path opacity="0.3" d="M228.137 99.3498C228.108 99.3169 228.08 99.282 228.055 99.2454C227.472 99.898 227.136 100.735 227.108 101.61C227.051 102.209 227.148 102.813 227.391 103.363L228.1 102.52C228.469 102.076 228.675 101.519 228.682 100.942C228.688 100.364 228.496 99.8022 228.137 99.3498Z" fill="#407BFF"/>
<path d="M200.909 40.283C199.566 42.274 197.966 44.0776 196.148 45.6466C195.141 46.5166 194.037 47.2676 192.857 47.8846C192.234 48.2026 191.588 48.4744 190.925 48.6977L190.425 48.8543L190.261 48.9066L189.902 49.0035C189.689 49.0547 189.472 49.0896 189.253 49.108C188.623 49.1545 187.99 49.094 187.38 48.9289C186.61 48.716 185.872 48.3998 185.187 47.989C184.626 47.6617 184.083 47.3056 183.56 46.9223C182.629 46.2285 181.74 45.4813 180.896 44.6843C179.264 43.1382 177.766 41.4562 176.419 39.6564C176.159 39.3058 176.031 38.8756 176.055 38.4402C176.079 38.0047 176.254 37.5913 176.55 37.2712C176.846 36.9511 177.245 36.7444 177.678 36.6869C178.11 36.6293 178.549 36.7245 178.919 36.9559H178.971C180.754 38.0451 182.538 39.2461 184.306 40.283C185.179 40.7977 186.037 41.3199 186.88 41.7228C187.263 41.9219 187.656 42.0987 188.059 42.2524C188.313 42.3682 188.586 42.4365 188.865 42.4538C188.902 42.4538 188.865 42.4016 188.582 42.4091C188.497 42.4039 188.412 42.4039 188.328 42.4091H188.164L188.417 42.2822C188.746 42.1028 189.065 41.9061 189.373 41.6929C190.041 41.2202 190.667 40.6911 191.245 40.1114C192.545 38.7422 193.766 37.3001 194.902 35.7922C195.497 34.9959 196.385 34.4687 197.37 34.3267C198.354 34.1847 199.355 34.4395 200.151 35.035C200.948 35.6306 201.475 36.518 201.617 37.5022C201.759 38.4864 201.504 39.4867 200.909 40.283Z" fill="#407BFF"/>
<path opacity="0.7" d="M200.909 40.283C199.566 42.274 197.966 44.0776 196.148 45.6466C195.141 46.5166 194.037 47.2676 192.857 47.8846C192.234 48.2026 191.588 48.4744 190.925 48.6977L190.425 48.8543L190.261 48.9066L189.902 49.0035C189.689 49.0547 189.472 49.0896 189.253 49.108C188.623 49.1545 187.99 49.094 187.38 48.9289C186.61 48.716 185.872 48.3998 185.187 47.989C184.626 47.6617 184.083 47.3056 183.56 46.9223C182.629 46.2285 181.74 45.4813 180.896 44.6843C179.264 43.1382 177.766 41.4562 176.419 39.6564C176.159 39.3058 176.031 38.8756 176.055 38.4402C176.079 38.0047 176.254 37.5913 176.55 37.2712C176.846 36.9511 177.245 36.7444 177.678 36.6869C178.11 36.6293 178.549 36.7245 178.919 36.9559H178.971C180.754 38.0451 182.538 39.2461 184.306 40.283C185.179 40.7977 186.037 41.3199 186.88 41.7228C187.263 41.9219 187.656 42.0987 188.059 42.2524C188.313 42.3682 188.586 42.4365 188.865 42.4538C188.902 42.4538 188.865 42.4016 188.582 42.4091C188.497 42.4039 188.412 42.4039 188.328 42.4091H188.164L188.417 42.2822C188.746 42.1028 189.065 41.9061 189.373 41.6929C190.041 41.2202 190.667 40.6911 191.245 40.1114C192.545 38.7422 193.766 37.3001 194.902 35.7922C195.497 34.9959 196.385 34.4687 197.37 34.3267C198.354 34.1847 199.355 34.4395 200.151 35.035C200.948 35.6306 201.475 36.518 201.617 37.5022C201.759 38.4864 201.504 39.4867 200.909 40.283Z" fill="white"/>
<path d="M173.628 35.4043L174.501 36.8963C174.501 36.8963 175.173 38.8507 176.508 39.2088L180.127 38.0451L179.948 37.7392C179.478 37.0305 179.531 35.6728 179.695 34.539C179.859 33.4051 179.269 33.3603 178.837 33.6438C178.524 33.9968 178.306 34.4226 178.202 34.8821C178.027 34.6359 177.832 34.4039 177.62 34.1883L176.516 33.0843C176.286 32.8552 175.978 32.7223 175.653 32.7126C175.329 32.7029 175.013 32.8172 174.77 33.0321L173.86 33.8004C173.641 33.9996 173.499 34.2684 173.456 34.5609C173.414 34.8535 173.475 35.1516 173.628 35.4043Z" fill="#407BFF"/>
<path opacity="0.7" d="M173.628 35.4043L174.501 36.8963C174.501 36.8963 175.173 38.8507 176.508 39.2088L180.127 38.0451L179.948 37.7392C179.478 37.0305 179.531 35.6728 179.695 34.539C179.859 33.4051 179.269 33.3603 178.837 33.6438C178.524 33.9968 178.306 34.4226 178.202 34.8821C178.027 34.6359 177.832 34.4039 177.62 34.1883L176.516 33.0843C176.286 32.8552 175.978 32.7223 175.653 32.7126C175.329 32.7029 175.013 32.8172 174.77 33.0321L173.86 33.8004C173.641 33.9996 173.499 34.2684 173.456 34.5609C173.414 34.8535 173.475 35.1516 173.628 35.4043Z" fill="white"/>
<path d="M207.498 30.0407C203.472 31.1019 199.616 32.7268 196.044 34.8672C195.488 35.2148 195.052 35.7243 194.795 36.3271C194.537 36.93 194.471 37.5972 194.604 38.239C196.037 45.2811 199.313 54.7178 202.849 60.7154L219.377 53.8972C219.497 50.9878 215.49 41.5736 211.408 32.4726C210.647 30.8389 209.244 29.6155 207.498 30.0407Z" fill="#407BFF"/>
<path opacity="0.8" d="M207.498 30.0407C203.472 31.1019 199.616 32.7268 196.044 34.8672C195.488 35.2148 195.052 35.7243 194.795 36.3271C194.537 36.93 194.471 37.5972 194.604 38.239C196.037 45.2811 199.313 54.7178 202.849 60.7154L219.377 53.8972C219.497 50.9878 215.49 41.5736 211.408 32.4726C210.647 30.8389 209.244 29.6155 207.498 30.0407Z" fill="white"/>
<path opacity="0.3" d="M213.93 38.239L210.654 37.1424C211.4 39.0596 214.042 41.484 215.878 42.9089C215.288 41.4169 214.624 39.8503 213.93 38.239Z" fill="#407BFF"/>
<path d="M206.409 22.6555C205.051 20.0594 202.103 18.7465 198.566 19.0449C195.581 19.2911 192.933 22.3422 193.246 23.9833C193.559 25.6245 196.074 26.3257 196.529 26.9001L194.462 28.3921C194.217 28.5687 194.011 28.7931 193.855 29.0517C193.699 29.3103 193.597 29.5977 193.555 29.8967C193.514 30.1957 193.533 30.5 193.612 30.7914C193.69 31.0828 193.828 31.3553 194.015 31.5923C194.888 32.6964 196.029 33.8303 196.701 34.6658C202.417 34.5166 206.647 32.3383 208.17 30.2346C207.625 27.6013 207.767 25.2366 206.409 22.6555Z" fill="#407BFF"/>
<path opacity="0.8" d="M206.409 22.6555C205.051 20.0594 202.103 18.7465 198.566 19.0449C195.581 19.2911 192.933 22.3422 193.246 23.9833C193.559 25.6245 196.074 26.3257 196.529 26.9001L194.462 28.3921C194.217 28.5687 194.011 28.7931 193.855 29.0517C193.699 29.3103 193.597 29.5977 193.555 29.8967C193.514 30.1957 193.533 30.5 193.612 30.7914C193.69 31.0828 193.828 31.3553 194.015 31.5923C194.888 32.6964 196.029 33.8303 196.701 34.6658C202.417 34.5166 206.647 32.3383 208.17 30.2346C207.625 27.6013 207.767 25.2366 206.409 22.6555Z" fill="white"/>
<path d="M203.61 24.2593C204.019 25.3008 204.11 26.4402 203.871 27.5334C203.633 28.6265 203.075 29.6243 202.268 30.4004C201.462 31.1764 200.444 31.6959 199.342 31.893C198.24 32.0901 197.105 31.9561 196.079 31.5077C195.054 31.0594 194.184 30.317 193.581 29.3745C192.978 28.432 192.668 27.3317 192.691 26.213C192.713 25.0943 193.067 24.0074 193.708 23.09C194.349 22.1725 195.247 21.4657 196.29 21.0591C196.981 20.7886 197.718 20.6568 198.46 20.6713C199.202 20.6857 199.933 20.8461 200.613 21.1433C201.293 21.4405 201.907 21.8686 202.421 22.4033C202.936 22.9379 203.339 23.5686 203.61 24.2593Z" fill="#263238"/>
<path d="M252.052 91.4872C251.97 89.0404 251.866 89.2492 251.799 87.1903C251.754 85.9222 251.746 84.5123 251.739 83.2963C251.735 82.7193 251.533 82.1611 251.166 81.7156C250.799 81.27 250.29 80.9642 249.724 80.8495C248.732 80.6481 247.739 80.4616 246.74 80.2453C245.456 79.9767 244.18 79.6783 242.912 79.3128C241.934 79.0293 240.964 78.7085 240.002 78.3654C239.039 78.0222 237.957 77.6194 236.95 77.1569C235.778 76.6496 234.614 76.1125 233.458 75.5605C232.174 74.9388 230.896 74.3048 229.622 73.6582C224.727 65.5345 224.6 60.1783 219.377 53.8972L208.035 59.0072C208.035 59.0072 216.348 73.7552 222.011 80.0065C225.272 83.6022 230.383 85.2284 234.942 86.3996C238.226 87.25 241.561 87.8916 244.904 88.5107C246.202 88.7494 247.613 88.8464 248.732 89.6222C249.562 90.254 250.128 91.171 250.321 92.1959C250.379 92.4022 250.426 92.6114 250.463 92.8225C250.582 93.4417 252.105 92.9717 252.052 91.4872Z" fill="#407BFF"/>
<path opacity="0.8" d="M252.052 91.4872C251.97 89.0404 251.866 89.2492 251.799 87.1903C251.754 85.9222 251.746 84.5123 251.739 83.2963C251.735 82.7193 251.533 82.1611 251.166 81.7156C250.799 81.27 250.29 80.9642 249.724 80.8495C248.732 80.6481 247.739 80.4616 246.74 80.2453C245.456 79.9767 244.18 79.6783 242.912 79.3128C241.934 79.0293 240.964 78.7085 240.002 78.3654C239.039 78.0222 237.957 77.6194 236.95 77.1569C235.778 76.6496 234.614 76.1125 233.458 75.5605C232.174 74.9388 230.896 74.3048 229.622 73.6582C224.727 65.5345 224.6 60.1783 219.377 53.8972L208.035 59.0072C208.035 59.0072 216.348 73.7552 222.011 80.0065C225.272 83.6022 230.383 85.2284 234.942 86.3996C238.226 87.25 241.561 87.8916 244.904 88.5107C246.202 88.7494 247.613 88.8464 248.732 89.6222C249.562 90.254 250.128 91.171 250.321 92.1959C250.379 92.4022 250.426 92.6114 250.463 92.8225C250.582 93.4417 252.105 92.9717 252.052 91.4872Z" fill="white"/>
<path opacity="0.3" d="M246.321 80.1557L244.971 79.82C245.008 82.3937 243.799 86.8472 243.352 88.19L244.769 88.466C245.7 85.7893 246.224 82.9879 246.321 80.1557Z" fill="#407BFF"/>
<path opacity="0.3" d="M251.739 83.2963C251.735 82.7193 251.533 82.1611 251.166 81.7156C250.799 81.27 250.29 80.9642 249.725 80.8495C249.493 80.7973 249.247 80.7451 249.016 80.7078C249.133 81.5568 249.567 82.3298 250.232 82.8711C250.656 83.2668 251.167 83.558 251.724 83.7215C251.739 83.55 251.739 83.4306 251.739 83.2963Z" fill="#407BFF"/>
<path d="M202.55 24.3115C202.856 25.438 201.588 26.6315 200.573 25.6543C199.634 24.6426 198.605 23.7187 197.499 22.8942C196.461 22.2452 197.849 21.1187 199.476 21.5514C200.175 21.7255 200.821 22.0681 201.356 22.5492C201.892 23.0304 202.302 23.6355 202.55 24.3115Z" fill="white"/>
<path d="M202.64 60.3574C202.11 60.5513 203.072 61.4391 203.072 61.4391C203.072 61.4391 213.519 57.8733 219.854 54.1956C219.872 53.9734 219.836 53.7501 219.749 53.5448C219.662 53.3395 219.526 53.1584 219.354 53.0169C213.923 55.7722 208.343 58.2228 202.64 60.3574Z" fill="#407BFF"/>
<path opacity="0.5" d="M202.64 60.3574C202.11 60.5513 203.072 61.4391 203.072 61.4391C203.072 61.4391 213.519 57.8733 219.854 54.1956C219.872 53.9734 219.836 53.7501 219.749 53.5448C219.662 53.3395 219.526 53.1584 219.354 53.0169C213.923 55.7722 208.343 58.2228 202.64 60.3574Z" fill="white"/>
<path d="M210.326 29.5483C212.378 30.5853 214.318 31.6893 216.25 32.9053C217.213 33.5095 218.175 34.1361 219.123 34.8075C220.071 35.4789 221.011 36.1577 221.951 36.941L222.309 37.2319L222.749 37.6273C223.013 37.874 223.262 38.1356 223.496 38.4106C223.734 38.6717 223.936 38.9253 224.13 39.1566C224.324 39.3878 224.525 39.6638 224.697 39.9026C225.395 40.8616 226.04 41.8577 226.63 42.8865C227.787 44.8808 228.785 46.9636 229.614 49.1154C229.764 49.5213 229.77 49.9666 229.63 50.376C229.489 50.7854 229.212 51.1339 228.845 51.3627C228.477 51.5915 228.042 51.6866 227.613 51.6319C227.183 51.5772 226.786 51.3761 226.488 51.0624L226.45 51.0252C224.958 49.4362 223.511 47.7652 222.063 46.2061C220.862 44.752 219.475 43.4627 217.937 42.3718C216.243 41.3199 214.355 40.2681 212.482 39.2312L206.833 36.1055C205.959 35.6426 205.304 34.8512 205.013 33.9055C204.722 32.9597 204.818 31.9372 205.281 31.0627C205.744 30.1882 206.536 29.5334 207.482 29.2425C208.428 28.9515 209.451 29.0481 210.326 29.511V29.5483Z" fill="#407BFF"/>
<path opacity="0.8" d="M210.326 29.5483C212.378 30.5853 214.318 31.6893 216.25 32.9053C217.213 33.5095 218.175 34.1361 219.123 34.8075C220.071 35.4789 221.011 36.1577 221.951 36.941L222.309 37.2319L222.749 37.6273C223.013 37.874 223.262 38.1356 223.496 38.4106C223.734 38.6717 223.936 38.9253 224.13 39.1566C224.324 39.3878 224.525 39.6638 224.697 39.9026C225.395 40.8616 226.04 41.8577 226.63 42.8865C227.787 44.8808 228.785 46.9636 229.614 49.1154C229.764 49.5213 229.77 49.9666 229.63 50.376C229.489 50.7854 229.212 51.1339 228.845 51.3627C228.477 51.5915 228.042 51.6866 227.613 51.6319C227.183 51.5772 226.786 51.3761 226.488 51.0624L226.45 51.0252C224.958 49.4362 223.511 47.7652 222.063 46.2061C220.862 44.752 219.475 43.4627 217.937 42.3718C216.243 41.3199 214.355 40.2681 212.482 39.2312L206.833 36.1055C205.959 35.6426 205.304 34.8512 205.013 33.9055C204.722 32.9597 204.818 31.9372 205.281 31.0627C205.744 30.1882 206.536 29.5334 207.482 29.2425C208.428 28.9515 209.451 29.0481 210.326 29.511V29.5483Z" fill="white"/>
<path d="M231.42 52.8081L230.786 51.2191C230.786 51.2191 230.435 49.19 229.167 48.6231L225.436 49.2124L225.57 49.5407C225.921 50.2866 225.66 51.6443 225.316 52.7409C224.973 53.8375 225.555 53.9643 226.025 53.7554C226.301 53.6361 226.555 53.1512 226.846 52.6365C226.983 52.8973 227.14 53.1468 227.316 53.3825L228.234 54.6432C228.424 54.9061 228.709 55.086 229.028 55.1457C229.347 55.2054 229.677 55.1403 229.95 54.9639L230.957 54.3224C231.194 54.159 231.368 53.9205 231.452 53.6457C231.536 53.3708 231.525 53.0757 231.42 52.8081Z" fill="#407BFF"/>
<path opacity="0.8" d="M231.42 52.8081L230.786 51.2191C230.786 51.2191 230.435 49.19 229.167 48.6231L225.436 49.2124L225.57 49.5407C225.921 50.2866 225.66 51.6443 225.316 52.7409C224.973 53.8375 225.555 53.9643 226.025 53.7554C226.301 53.6361 226.555 53.1512 226.846 52.6365C226.983 52.8973 227.14 53.1468 227.316 53.3825L228.234 54.6432C228.424 54.9061 228.709 55.086 229.028 55.1457C229.347 55.2054 229.677 55.1403 229.95 54.9639L230.957 54.3224C231.194 54.159 231.368 53.9205 231.452 53.6457C231.536 53.3708 231.525 53.0757 231.42 52.8081Z" fill="white"/>
<path opacity="0.3" d="M207.17 38.1197L206.259 38.1943L200.678 51.6891C200.983 51.711 201.29 51.6859 201.588 51.6145C201.588 51.6145 208.871 48.8991 211.072 47.8846C209.587 44.8335 207.17 38.1197 207.17 38.1197Z" fill="#407BFF"/>
<path d="M196.991 41.6631C197.671 45.1886 198.931 48.5768 200.722 51.6891C203.446 50.7491 208.005 48.9737 210.206 47.9592C208.738 44.766 207.435 41.4992 206.304 38.1719C203.908 38.3509 198.79 40.283 196.991 41.6631Z" fill="white"/>
<path opacity="0.3" d="M202.52 44.5799C202.412 44.9446 202.197 45.2689 201.904 45.5119C201.611 45.7549 201.253 45.9056 200.874 45.945C200.496 45.9843 200.114 45.9106 199.777 45.7331C199.441 45.5557 199.164 45.2824 198.983 44.9478C198.801 44.6133 198.723 44.2325 198.758 43.8536C198.793 43.4746 198.94 43.1146 199.179 42.8189C199.419 42.5233 199.741 42.3053 200.105 42.1925C200.468 42.0797 200.857 42.0772 201.222 42.1853C201.465 42.2571 201.691 42.3761 201.887 42.5353C202.084 42.6946 202.247 42.8911 202.368 43.1135C202.488 43.3359 202.564 43.5799 202.59 43.8315C202.616 44.0831 202.592 44.3374 202.52 44.5799Z" fill="#407BFF"/>
<path opacity="0.6" d="M203.946 42.0137C203.909 42.1337 203.838 42.2402 203.741 42.3199C203.645 42.3996 203.526 42.4488 203.402 42.4613C203.277 42.4738 203.151 42.4491 203.041 42.3903C202.93 42.3314 202.839 42.2411 202.78 42.1307C202.72 42.0203 202.695 41.8948 202.707 41.77C202.719 41.6452 202.768 41.5268 202.847 41.4297C202.926 41.3325 203.032 41.261 203.152 41.2243C203.272 41.1875 203.4 41.187 203.52 41.2229C203.68 41.2729 203.815 41.3837 203.894 41.5315C203.974 41.6794 203.992 41.8525 203.946 42.0137Z" fill="#407BFF"/>
<path opacity="0.6" d="M205.61 41.3647C205.55 41.5108 205.438 41.6294 205.296 41.6973C205.153 41.7652 204.99 41.7775 204.839 41.7318C204.688 41.6861 204.56 41.5857 204.479 41.4502C204.398 41.3147 204.37 41.1539 204.401 40.9992C204.419 40.9126 204.454 40.8307 204.505 40.7586C204.556 40.6866 204.622 40.6259 204.698 40.5806C204.773 40.5353 204.858 40.5064 204.945 40.4956C205.033 40.4848 205.122 40.4924 205.207 40.518C205.291 40.5435 205.369 40.5865 205.436 40.644C205.503 40.7016 205.558 40.7725 205.596 40.8522C205.633 40.9319 205.654 41.0186 205.657 41.1069C205.659 41.1951 205.643 41.283 205.61 41.3647Z" fill="#407BFF"/>
<path opacity="0.5" d="M207.961 47.1684L201.058 49.8987L200.641 48.541L207.543 45.8107L207.961 47.1684Z" fill="#407BFF"/>
<path opacity="0.2" d="M169.875 150.852C169.864 155.196 169.449 159.529 168.636 163.795C167.756 167.63 166.388 170.434 164.532 172.21C163.668 173.068 162.642 173.745 161.513 174.202C160.384 174.659 159.176 174.887 157.958 174.873C154.123 174.873 151.196 172.782 149.176 168.599C148.821 167.848 148.519 167.073 148.273 166.279C144.008 169.942 140.036 173.933 136.394 178.215L132.432 182.885C134.564 185.046 137.024 186.856 139.722 188.248C144.373 190.651 150.472 191.854 158.018 191.859C159.346 191.859 160.63 191.822 161.876 191.747C166.444 184.989 170.225 177.731 173.143 170.114L184.224 141.229L169.875 150.852Z" fill="black"/>
<path d="M69.9844 190.225L83.05 203.28L119.613 168.838C107.032 164.064 82.4978 177.723 69.9844 190.225Z" fill="#263238"/>
<path d="M115.531 235.73L102.473 222.676L136.916 186.122C141.699 198.722 128.044 223.25 115.531 235.73Z" fill="#263238"/>
<path d="M165.503 153.486L179.755 126.026L152.288 140.245C143.462 144.817 135.313 150.591 128.074 157.402L81.2588 201.497L104.264 224.496L148.34 177.685C155.152 170.45 160.927 162.306 165.503 153.486Z" fill="#407BFF"/>
<path opacity="0.6" d="M165.503 153.486L179.755 126.026L152.288 140.245C143.462 144.817 135.313 150.591 128.074 157.402L81.2588 201.497L104.264 224.496L148.34 177.685C155.152 170.45 160.927 162.306 165.503 153.486Z" fill="white"/>
<path d="M136.253 179.133C141.569 179.133 145.878 174.824 145.878 169.509C145.878 164.195 141.569 159.886 136.253 159.886C130.937 159.886 126.627 164.195 126.627 169.509C126.627 174.824 130.937 179.133 136.253 179.133Z" fill="white"/>
<path d="M136.252 175.694C139.669 175.694 142.438 172.925 142.438 169.509C142.438 166.094 139.669 163.325 136.252 163.325C132.836 163.325 130.066 166.094 130.066 169.509C130.066 172.925 132.836 175.694 136.252 175.694Z" fill="#407BFF"/>
<path opacity="0.3" d="M112.039 216.23L89.5195 193.717L107.958 176.365L129.395 197.797L112.039 216.23Z" fill="#407BFF"/>
<path d="M75.0878 210.859C58.2017 212.232 52.6278 223.049 50.7399 237.371C49.7699 244.689 49.3371 252.097 43.1886 256.379C42.8185 256.63 42.54 256.995 42.3949 257.418C42.2498 257.841 42.246 258.3 42.3839 258.725C42.5218 259.151 42.7941 259.52 43.1599 259.778C43.5257 260.035 43.9652 260.167 44.4123 260.154C67.0514 259.445 77.6099 248.36 78.9306 243.742C78.5864 246.163 77.963 248.536 77.0726 250.814C76.9098 251.216 76.8779 251.659 76.9815 252.079C77.0851 252.5 77.319 252.878 77.6498 253.158C77.9805 253.438 78.3913 253.607 78.8236 253.64C79.2559 253.673 79.6877 253.569 80.0574 253.343C86.4148 249.359 94.384 242.034 94.9138 230.158C90.2203 223.533 75.0878 210.859 75.0878 210.859Z" fill="#407BFF"/>
<path opacity="0.2" d="M75.0878 210.859C58.2017 212.232 52.6278 223.049 50.7399 237.371C49.7699 244.689 49.3371 252.097 43.1886 256.379C42.8185 256.63 42.54 256.995 42.3949 257.418C42.2498 257.841 42.246 258.3 42.3839 258.725C42.5218 259.151 42.7941 259.52 43.1599 259.778C43.5257 260.035 43.9652 260.167 44.4123 260.154C67.0514 259.445 77.6099 248.36 78.9306 243.742C78.5864 246.163 77.963 248.536 77.0726 250.814C76.9098 251.216 76.8779 251.659 76.9815 252.079C77.0851 252.5 77.319 252.878 77.6498 253.158C77.9805 253.438 78.3913 253.607 78.8236 253.64C79.2559 253.673 79.6877 253.569 80.0574 253.343C86.4148 249.359 94.384 242.034 94.9138 230.158C90.2203 223.533 75.0878 210.859 75.0878 210.859Z" fill="white"/>
<path d="M97.5111 235.245L70.5068 208.241L84.8932 205.13L100.623 220.855L97.5111 235.245Z" fill="#407BFF"/>
</g>
</g>
<defs>
<filter id="filter0_d_49_485" x="-4" y="0" width="322" height="299" filterUnits="userSpaceOnUse" color-interpolation-filters="sRGB">
<feFlood flood-opacity="0" result="BackgroundImageFix"/>
<feColorMatrix in="SourceAlpha" type="matrix" values="0 0 0 0 0 0 0 0 0 0 0 0 0 0 0 0 0 0 127 0" result="hardAlpha"/>
<feOffset dy="4"/>
<feGaussianBlur stdDeviation="2"/>
<feComposite in2="hardAlpha" operator="out"/>
<feColorMatrix type="matrix" values="0 0 0 0 0 0 0 0 0 0 0 0 0 0 0 0 0 0 0.25 0"/>
<feBlend mode="normal" in2="BackgroundImageFix" result="effect1_dropShadow_49_485"/>
<feBlend mode="normal" in="SourceGraphic" in2="effect1_dropShadow_49_485" result="shape"/>
</filter>
<clipPath id="clip0_49_485">
<rect width="314" height="291" fill="white"/>
</clipPath>
</defs>
</svg>
